<svg width="123" height="130" viewBox="0 0 123 130" fill="none" xmlns="http://www.w3.org/2000/svg">
<g id="Group 121">
<path id="Vector (Stroke)" fill-rule="evenodd" clip-rule="evenodd" d="M-6.17598 14.6984C-2.95947 14.213 0.0415139 16.427 0.526896 19.6436L15.4675 118.652L114.476 103.711C117.692 103.226 120.693 105.44 121.179 108.656C121.664 111.873 119.45 114.874 116.234 115.359L11.4013 131.179C8.18474 131.664 5.18376 129.45 4.69838 126.234L-11.1211 21.4013C-11.6065 18.1848 -9.3925 15.1838 -6.17598 14.6984Z" fill="#7FABCC" stroke="#184E77" stroke-width="3" stroke-linecap="round" stroke-linejoin="round"/>
<path id="Vector (Stroke)_2" fill-rule="evenodd" clip-rule="evenodd" d="M101.245 -0.931617C104.357 0.0130117 106.115 3.30209 105.17 6.41475L85.2787 71.9594C84.739 73.7379 83.3914 75.1573 81.6433 75.7886C79.8952 76.4199 77.9516 76.189 76.4001 75.1657L49.7828 57.611L35.9061 100.36C34.9018 103.454 31.5795 105.148 28.4856 104.144C25.3917 103.14 23.6977 99.8175 24.702 96.7235L40.9667 46.6174C41.5344 44.8685 42.8863 43.4851 44.6216 42.8772C46.3569 42.2694 48.2765 42.5068 49.8115 43.5191L76.2983 60.9878L93.8983 2.99395C94.8429 -0.118711 98.132 -1.87625 101.245 -0.931617Z" fill="#7FABCC" stroke="#184E77" stroke-width="3" stroke-linecap="round" stroke-linejoin="round"/>
</g>
</svg>
