<svg width="14" height="14" viewBox="0 0 14 14" fill="none" xmlns="http://www.w3.org/2000/svg">
<path fill-rule="evenodd" clip-rule="evenodd" d="M2.24687 2.03514C1.45096 2.65418 1.07692 3.69182 1.07692 5.5641C1.07692 6.87016 1.26009 7.77131 1.63776 8.40352C2.00102 9.01161 2.58564 9.43831 3.55445 9.70758C3.78747 9.77235 3.94872 9.98453 3.94872 10.2264V12.1616L5.9102 10.2001C6.01468 10.0956 6.15749 10.0387 6.30519 10.0426C6.528 10.0484 6.7595 10.0513 7 10.0513C9.46708 10.0513 10.9126 9.74683 11.7531 9.09304C12.549 8.474 12.9231 7.43636 12.9231 5.5641C12.9231 3.69182 12.549 2.65418 11.7531 2.03514C10.9126 1.38135 9.46709 1.07692 7 1.07692C4.53293 1.07692 3.08746 1.38135 2.24687 2.03514ZM1.58571 1.18507C2.7406 0.286821 4.52589 0 7 0C9.47412 0 11.2594 0.286821 12.4143 1.18507C13.6139 2.11806 14 3.59324 14 5.5641C14 7.53493 13.6139 9.01012 12.4143 9.94311C11.2594 10.8414 9.47412 11.1282 7 11.1282C6.83287 11.1282 6.66926 11.1269 6.50914 11.1241L3.79101 13.8423C3.63701 13.9963 3.40541 14.0423 3.2042 13.959C3.00299 13.8757 2.87179 13.6793 2.87179 13.4615V10.6221C1.90997 10.2863 1.19022 9.75427 0.713237 8.95581C0.187583 8.07588 0 6.94194 0 5.5641C0 3.59324 0.386147 2.11806 1.58571 1.18507ZM3.58974 4.1282C3.58974 3.83082 3.83082 3.58974 4.1282 3.58974H9.87179C10.1692 3.58974 10.4103 3.83082 10.4103 4.1282C10.4103 4.42558 10.1692 4.66666 9.87179 4.66666H4.1282C3.83082 4.66666 3.58974 4.42558 3.58974 4.1282ZM3.58974 6.99999C3.58974 6.70261 3.83082 6.46153 4.1282 6.46153H7.71795C8.01533 6.46153 8.25641 6.70261 8.25641 6.99999C8.25641 7.29738 8.01533 7.53845 7.71795 7.53845H4.1282C3.83082 7.53845 3.58974 7.29738 3.58974 6.99999Z" fill="#103959"/>
</svg>
