<svg width="47" height="58" viewBox="0 0 47 58" fill="none" xmlns="http://www.w3.org/2000/svg">
<path d="M11.2867 36.3029C9.04405 36.3029 8.74623 35.2467 8.74623 35.2467L0 52.5739L7.01313 51.7817L10.892 57.66C10.892 57.66 18.9654 40.6709 18.9654 40.7849C14.7852 40.6836 16.4447 36.4169 11.2867 36.3029ZM31.002 38.1623C32.091 36.3174 33.7003 35.3823 35.8299 35.3534C37.9595 35.3244 39.036 34.2374 39.0647 32.0905C39.0934 29.9454 40.021 28.323 41.8509 27.2269C43.6809 26.1308 44.0756 24.6441 43.035 22.7721C41.9945 20.9001 41.9945 19.0263 43.035 17.1543C44.0756 15.2823 43.6791 13.7974 41.8509 12.6995C40.0227 11.6016 39.0934 9.98104 39.0647 7.83412C39.036 5.68901 37.9577 4.60199 35.8299 4.57305C33.6985 4.54411 32.091 3.60902 31.002 1.76415C29.9166 -0.0807129 28.44 -0.478625 26.5832 0.570416C24.7263 1.61946 22.8694 1.61946 21.0125 0.570416C19.1556 -0.478625 17.6826 -0.0789043 16.5936 1.76415C15.5046 3.60902 13.8971 4.54411 11.7675 4.57305C9.6379 4.60199 8.56144 5.69082 8.53273 7.83593C8.50403 9.98285 7.57648 11.6034 5.7465 12.7013C3.91652 13.7992 3.52182 15.2841 4.56239 17.1561C5.60297 19.0281 5.60297 20.9019 4.56239 22.7739C3.52182 24.6459 3.91831 26.1308 5.7465 27.2287C7.57648 28.3266 8.50403 29.949 8.53273 32.0923C8.56144 34.2392 9.63969 35.3262 11.7675 35.3552C13.8953 35.3841 15.5046 36.3192 16.5936 38.1641C17.6808 40.0089 19.1556 40.405 21.0125 39.3578C22.8694 38.3106 24.7263 38.3106 26.5832 39.3578C28.44 40.405 29.9148 40.0071 31.002 38.1623ZM38.1389 35.9249C31.7484 36.6032 33.0473 38.1966 31.5905 39.4392C29.9076 41.2479 27.8103 40.8988 27.8103 40.8988L37.6779 58L40.0999 51.6696L47 52.5739L38.1389 35.9249Z" fill="url(#paint0_linear_173_900)"/>
<path d="M17.3436 30V27.738L24.5716 20.874C25.1783 20.302 25.6289 19.7993 25.9236 19.366C26.2183 18.9327 26.4089 18.534 26.4956 18.17C26.5996 17.7887 26.6516 17.4333 26.6516 17.104C26.6516 16.272 26.3656 15.6307 25.7936 15.18C25.2216 14.712 24.3809 14.478 23.2716 14.478C22.3876 14.478 21.5816 14.634 20.8536 14.946C20.1429 15.258 19.5276 15.7347 19.0076 16.376L16.6416 14.556C17.3523 13.6027 18.3056 12.866 19.5016 12.346C20.7149 11.8087 22.0669 11.54 23.5576 11.54C24.8749 11.54 26.0189 11.7567 26.9896 12.19C27.9776 12.606 28.7316 13.204 29.2516 13.984C29.7889 14.764 30.0576 15.6913 30.0576 16.766C30.0576 17.3553 29.9796 17.9447 29.8236 18.534C29.6676 19.106 29.3729 19.7127 28.9396 20.354C28.5063 20.9953 27.8736 21.7147 27.0416 22.512L20.8276 28.414L20.1256 27.14H30.7596V30H17.3436Z" fill="#103959"/>
<defs>
<linearGradient id="paint0_linear_173_900" x1="43.5" y1="24.5" x2="5" y2="24.5" gradientUnits="userSpaceOnUse">
<stop stop-color="#999999"/>
<stop offset="0.5" stop-color="#FEFEFE"/>
<stop offset="1" stop-color="#999999"/>
</linearGradient>
</defs>
</svg>
