<?xml version="1.0" encoding="UTF-8"?>
<svg id="Layer_1" data-name="Layer 1" xmlns="http://www.w3.org/2000/svg" viewBox="0 0 100 100">
  <defs>
    <style>
      .cls-1 {
        fill: #7fabcc;
      }

      .cls-2 {
        fill: #d8e592;
      }

      .cls-3 {
        fill: #103959;
      }
    </style>
  </defs>
  <rect class="cls-3" width="100" height="100"/>
  <g>
    <path class="cls-2" d="m59.01,74.87c9.88-3.32,16.99-12.67,16.99-23.67,0-13.8-11.19-24.98-24.98-24.98-2.9,0-5.68.49-8.26,1.4-1.5.52-2.92,1.18-4.27,1.97-7.44,4.33-12.45,12.39-12.45,21.61,0,1.02.06,2.02.19,3.01t0,0c0,.06.02.11.03.17.24,1.88.68,3.7,1.32,5.43.71,2.15,1.25,3.13,1.49,5.04.25,1.93,0,3.45-.13,4.18-.21,1.14-.55,2.2-.97,3.17-.41.98-.9,1.87-1.43,2.68-.94,1.47-1.99,2.68-2.86,3.67-3.14,3.58-6.01,6.1-6.01,6.1-1.4,1.24-3.07,2.59-2.79,3.96.13.63.64,1.09,1.51,1.88.1.09.29.25.68.57.78.64,1.6,1.3,2.53,2,.41.31.62.47.72.54.97.66,1.54,1.05,2.18,1.03,1.39-.04,2.32-1.98,3.2-3.62,0,0,1.8-3.37,4.56-7.26,1.61-2.27,3.99-5.52,8.06-7.31.79-.35,2.15-.94,4.03-1.09.15-.02.29-.02.42-.03h.03c1.05-.04,1.85.1,2.79.26,1.76.39,3.58.6,5.46.6,2.8,0,5.48-.46,7.99-1.32Zm-7.99-45.64c12.14,0,21.97,9.83,21.97,21.97,0,9.85-6.48,18.2-15.41,20.99-2.07.65-4.27,1-6.56,1-2.92,0-5.7-.57-8.25-1.62-8.04-3.25-13.72-11.15-13.72-20.37s5.68-17.11,13.72-20.37c1.36-.56,2.78-.97,4.26-1.24,1.29-.24,2.62-.36,3.99-.36Z"/>
    <path class="cls-1" d="m49.97,21.32h.05c3.27-.03,5.92-2.68,5.92-5.97s-2.68-5.98-5.97-5.98c-1.36,0-2.61.44-3.62,1.22-1.44,1.11-2.37,2.83-2.37,4.77,0,3.3,2.68,5.97,5.98,5.97Z"/>
  </g>
</svg>