<svg width="29" height="27" viewBox="0 0 29 27" fill="none" xmlns="http://www.w3.org/2000/svg">
<path fill-rule="evenodd" clip-rule="evenodd" d="M11.3026 14.1251C11.1431 14.1251 11.0139 14.2444 11.0139 14.3917V25.3212H18.7001V14.3917C18.7001 14.2444 18.5709 14.1251 18.4113 14.1251H11.3026ZM9.81427 14.3917C9.81427 13.6328 10.4807 13.0178 11.3026 13.0178H18.4113C19.2334 13.0178 19.8997 13.6328 19.8997 14.3917V25.8749C19.8997 26.1807 19.6312 26.4286 19.2999 26.4286H10.4141C10.0828 26.4286 9.81427 26.1807 9.81427 25.8749V14.3917Z" fill="white"/>
<path fill-rule="evenodd" clip-rule="evenodd" d="M20.1886 21.6438C20.0291 21.6438 19.8998 21.7632 19.8998 21.9104V25.3212H27.2973C27.4569 25.3212 27.5861 25.2019 27.5861 25.0546V21.9104C27.5861 21.7632 27.4569 21.6438 27.2973 21.6438H20.1886ZM18.7003 21.9104C18.7003 21.1516 19.3666 20.5365 20.1886 20.5365H27.2973C28.1194 20.5365 28.7857 21.1516 28.7857 21.9104V25.0546C28.7857 25.8135 28.1194 26.4285 27.2973 26.4285H19.3001C18.9688 26.4285 18.7003 26.1806 18.7003 25.8749V21.9104Z" fill="white"/>
<path fill-rule="evenodd" clip-rule="evenodd" d="M0.928528 19.1763C0.928528 18.4175 1.59492 17.8025 2.41691 17.8025H9.52559C10.3476 17.8025 11.014 18.4175 11.014 19.1763V25.8749C11.014 26.1807 10.7454 26.4286 10.4142 26.4286H2.41691C1.59492 26.4286 0.928528 25.8135 0.928528 25.0547V19.1763ZM2.41691 18.9098C2.2574 18.9098 2.12812 19.0291 2.12812 19.1763V25.0547C2.12812 25.2019 2.2574 25.3213 2.41691 25.3213H9.81438V19.1763C9.81438 19.0291 9.6851 18.9098 9.52559 18.9098H2.41691Z" fill="white"/>
<path fill-rule="evenodd" clip-rule="evenodd" d="M14.8571 1.99266L13.6307 4.39304C13.5456 4.55968 13.3762 4.67631 13.1789 4.70417L10.3812 5.09923L12.4231 7.02063C12.5569 7.14655 12.6177 7.32381 12.5868 7.49788L12.1108 10.1793L14.5679 8.93097C14.7479 8.83949 14.9662 8.83949 15.1463 8.93097L17.6033 10.1793L17.1273 7.49787C17.0964 7.3238 17.1572 7.14655 17.291 7.02063L19.333 5.09924L16.5352 4.70417C16.338 4.67631 16.1686 4.55968 16.0835 4.39304L14.8571 1.99266ZM19.5462 5.12935C19.5461 5.12934 19.5461 5.12933 19.546 5.12931L19.5462 5.12935ZM17.6413 10.3936C17.6413 10.3937 17.6413 10.3937 17.6414 10.3937C17.6414 10.3937 17.6414 10.3937 17.6414 10.3937M17.6414 10.3937C17.6413 10.3937 17.6413 10.3937 17.6413 10.3936L17.6414 10.3937ZM11.8752 10.299C11.8752 10.299 11.8753 10.299 11.8753 10.299L11.8752 10.299ZM15.8221 1.28552C15.433 0.523887 14.2812 0.523888 13.8921 1.28552C13.8921 1.28552 13.8921 1.28551 13.8921 1.28552L12.6819 3.65416L9.9865 4.03477C9.08043 4.16274 8.79254 5.18555 9.38841 5.74628L11.3539 7.59574L10.8889 10.2146C10.7525 10.9833 11.614 11.6959 12.4538 11.269L14.8571 10.048L17.2603 11.269C18.1002 11.6959 18.9616 10.9833 18.8252 10.2146C18.8252 10.2146 18.8251 10.2146 18.8251 10.2146L18.3603 7.59574L20.3258 5.74623C20.9214 5.18562 20.6339 4.16275 19.7276 4.03477L17.0323 3.65416L15.8221 1.28552C15.8221 1.28552 15.8221 1.28551 15.8221 1.28552Z" fill="white"/>
</svg>
