<svg width="49" height="60" viewBox="0 0 49 60" fill="none" xmlns="http://www.w3.org/2000/svg">
<path d="M12.4613 37.0343C10.1735 37.0343 9.8697 35.9567 9.8697 35.9567L0.947266 53.6331L8.10169 52.8249L12.0587 58.8216C12.0587 58.8216 20.2948 41.4903 20.2948 41.6065C16.0303 41.5032 17.7233 37.1505 12.4613 37.0343ZM32.5739 38.9311C33.6848 37.0491 35.3265 36.0951 37.499 36.0656C39.6715 36.0361 40.7697 34.9272 40.799 32.737C40.8283 30.5487 41.7745 28.8936 43.6413 27.7754C45.5082 26.6573 45.9108 25.1406 44.8493 23.2309C43.7878 21.3212 43.7878 19.4096 44.8493 17.4999C45.9108 15.5902 45.5064 14.0753 43.6413 12.9554C41.7763 11.8354 40.8283 10.1821 40.799 7.99195C40.7697 5.80363 39.6697 4.6947 37.499 4.66518C35.3247 4.63566 33.6848 3.68173 32.5739 1.79969C31.4666 -0.082339 29.9603 -0.488268 28.066 0.581908C26.1717 1.65208 24.2774 1.65208 22.3831 0.581908C20.4888 -0.488268 18.9861 -0.0804939 17.8752 1.79969C16.7642 3.68173 15.1243 4.63566 12.9518 4.66518C10.7793 4.6947 9.68118 5.80547 9.6519 7.9938C9.62262 10.184 8.67638 11.8372 6.80953 12.9572C4.94269 14.0772 4.54003 15.592 5.60157 17.5018C6.66311 19.4115 6.66311 21.323 5.60157 23.2327C4.54003 25.1424 4.94452 26.6573 6.80953 27.7773C8.67638 28.8973 9.62262 30.5524 9.6519 32.7388C9.68118 34.929 10.7812 36.0379 12.9518 36.0675C15.1225 36.097 16.7642 37.0509 17.8752 38.9329C18.9843 40.815 20.4888 41.2191 22.3831 40.1507C24.2774 39.0824 26.1717 39.0824 28.066 40.1507C29.9603 41.2191 31.4647 40.8131 32.5739 38.9311ZM39.8546 36.6487C33.3352 37.3406 34.6603 38.9662 33.1742 40.2338C31.4574 42.0789 29.3179 41.7228 29.3179 41.7228L39.3842 59.1685L41.855 52.7105L48.8941 53.6331L39.8546 36.6487Z" fill="url(#paint0_linear_195_1619)"/>
<path d="M19.0304 30.1007V27.9257L25.9804 21.3257C26.5638 20.7757 26.9971 20.2924 27.2804 19.8757C27.5638 19.459 27.7471 19.0757 27.8304 18.7257C27.9304 18.359 27.9804 18.0174 27.9804 17.7007C27.9804 16.9007 27.7054 16.284 27.1554 15.8507C26.6054 15.4007 25.7971 15.1757 24.7304 15.1757C23.8804 15.1757 23.1054 15.3257 22.4054 15.6257C21.7221 15.9257 21.1304 16.384 20.6304 17.0007L18.3554 15.2507C19.0388 14.334 19.9554 13.6257 21.1054 13.1257C22.2721 12.609 23.5721 12.3507 25.0054 12.3507C26.2721 12.3507 27.3721 12.559 28.3054 12.9757C29.2554 13.3757 29.9804 13.9507 30.4804 14.7007C30.9971 15.4507 31.2554 16.3424 31.2554 17.3757C31.2554 17.9424 31.1804 18.509 31.0304 19.0757C30.8804 19.6257 30.5971 20.209 30.1804 20.8257C29.7638 21.4424 29.1554 22.134 28.3554 22.9007L22.3804 28.5757L21.7054 27.3507H31.9304V30.1007H19.0304Z" fill="#103959"/>
<defs>
<linearGradient id="paint0_linear_195_1619" x1="45.3236" y1="24.9936" x2="6.048" y2="24.9936" gradientUnits="userSpaceOnUse">
<stop stop-color="#999999"/>
<stop offset="0.5" stop-color="#FEFEFE"/>
<stop offset="1" stop-color="#999999"/>
</linearGradient>
</defs>
</svg>
