<svg width="15" height="13" viewBox="0 0 15 13" fill="none" xmlns="http://www.w3.org/2000/svg">
<path d="M5.62518 7.25011C7.62724 7.25011 9.25023 5.62712 9.25023 3.62505C9.25023 1.62299 7.62724 0 5.62518 0C3.62311 0 2.00012 1.62299 2.00012 3.62505C2.00012 5.62712 3.62311 7.25011 5.62518 7.25011Z" fill="#103959"/>
<path fill-rule="evenodd" clip-rule="evenodd" d="M12.1249 4.25003C12.4701 4.25003 12.75 4.57183 12.75 4.96879V9.28136C12.75 9.67832 12.4701 10.0001 12.1249 10.0001C11.7798 10.0001 11.4999 9.67832 11.4999 9.28136V4.96879C11.4999 4.57183 11.7798 4.25003 12.1249 4.25003Z" fill="#103959"/>
<path fill-rule="evenodd" clip-rule="evenodd" d="M9.24988 7.2501C9.24988 6.83588 9.57168 6.50009 9.96864 6.50009H14.2812C14.6782 6.50009 15 6.83588 15 7.2501C15 7.66432 14.6782 8.00011 14.2812 8.00011H9.96864C9.57168 8.00011 9.24988 7.66432 9.24988 7.2501Z" fill="#103959"/>
<path d="M10.8127 12.4188C11.1481 12.3427 11.3491 11.9934 11.2005 11.6826C10.7997 10.8447 10.141 10.1083 9.28724 9.55331C8.23666 8.87042 6.94936 8.50021 5.6251 8.50021C4.30084 8.50021 3.01357 8.87042 1.96296 9.55331C1.10918 10.1083 0.450471 10.8446 0.0496682 11.6826C-0.0989485 11.9934 0.102161 12.3427 0.437462 12.4188C3.85265 13.1941 7.39751 13.1941 10.8127 12.4188Z" fill="#103959"/>
</svg>
