<svg width="814" height="557" viewBox="0 0 814 557" fill="none" xmlns="http://www.w3.org/2000/svg">
<path d="M685.428 208.277C681.882 209.929 681.472 209.662 671.99 204.031C662.509 198.399 654.542 181.523 654.542 181.523C654.542 181.523 673.541 176.389 678.121 184.72C682.702 193.034 685.446 208.295 685.446 208.295L685.428 208.277Z" fill="#102C57"/>
<path d="M739.823 218.741C739.823 223.342 747.576 223.075 758.091 222.276C768.588 221.476 784.521 218.367 783.024 210.284C781.527 202.201 768.321 201.615 756.736 202.681C745.152 203.747 739.823 218.741 739.823 218.741Z" fill="#102C57"/>
<path d="M566.446 81.3816C563.862 81.4882 560.868 84.3838 557.499 84.1174C554.131 83.8509 551.368 74.5953 551.368 74.5953L561.723 72.8899L574.092 73.9025L566.446 81.3816Z" fill="#FFBC9A"/>
<g style="mix-blend-mode:multiply">
<path d="M566.446 81.3816C563.862 81.4882 560.868 84.3838 557.499 84.1174C554.131 83.8509 551.368 74.5953 551.368 74.5953L561.723 72.8899L574.092 73.9025L566.446 81.3816Z" fill="#FFDECF"/>
</g>
<path d="M555.77 53.8635C556.251 43.7197 546.93 35.6722 539.534 31.5685C532.137 27.4648 521.587 27.447 514.618 33.4338C507.649 39.4206 505.849 50.0263 508.826 57.9317C511.802 65.8371 518.628 76.0343 528.769 77.0646C531.941 77.3844 535.934 75.9632 538.981 74.5242C541.263 73.4583 543.954 73.938 545.718 75.7322C548.071 78.1305 550.619 80.9019 552.437 83.4067C554.077 85.6806 555.235 90.1929 556.376 92.3958C557.481 94.4743 560.618 93.1597 562.4 91.6141L565.198 89.2159C566.998 87.6703 566.891 84.8812 564.984 83.4778C562.988 82.0211 560.546 80.1202 558.55 78.1483C556.055 75.6967 553.756 72.9254 551.885 70.456C550.352 68.4486 550.281 65.7128 551.689 63.6165C553.578 60.8097 555.627 57.0612 555.77 53.8635Z" fill="#E4CAA9"/>
<path d="M555.681 51.3764C554.737 42.4051 546.307 35.3169 539.516 31.5685C532.12 27.4648 521.569 27.447 514.6 33.4338C507.632 39.4206 505.832 50.0263 508.808 57.9317C511.517 65.1798 517.505 74.3466 526.292 76.6027L551.279 55.1604C551.279 55.1604 553.703 55.0893 555.396 56.0842C555.396 56.0842 556.002 54.3787 555.681 51.3942V51.3764Z" fill="#184E77"/>
<path d="M552.669 54.2722C553.15 44.1284 543.829 36.0808 536.433 31.9771C529.036 27.8734 518.485 27.8557 511.517 33.8247C504.548 39.8115 502.748 50.4172 505.725 58.3226C508.683 66.228 515.527 76.4251 525.668 77.4555C528.84 77.7753 532.833 76.3541 535.88 74.9151C538.161 73.8492 540.853 74.3289 542.617 76.1231C544.97 78.5214 547.518 81.2927 549.336 83.7976C550.976 86.0715 552.509 88.754 553.667 90.9569C554.772 93.0354 557.517 93.5506 559.317 92.005L562.115 89.6068C563.915 88.0612 563.808 85.2721 561.901 83.8687C559.905 82.4119 557.463 80.5111 555.467 78.5392C552.972 76.0876 550.673 73.3163 548.801 70.8469C547.269 68.8395 547.197 66.1037 548.605 64.0074C550.495 61.2005 552.544 57.4521 552.687 54.2544L552.669 54.2722Z" fill="#FDDFBB"/>
<path d="M526.827 77.4911L552.544 55.4447C552.616 55.0539 552.669 54.6631 552.687 54.29C553.168 44.1462 543.847 36.0987 536.451 31.995C529.054 27.8912 518.504 27.8735 511.535 33.8425C504.566 39.8293 502.766 50.435 505.743 58.3404C508.701 66.2459 515.545 76.443 525.686 77.4733C526.06 77.5089 526.452 77.5266 526.862 77.5089L526.827 77.4911Z" fill="#7FABCC"/>
<path d="M656.146 47.7701C657.947 51.8028 659.96 55.64 660.37 58.4647C660.78 61.2893 660.566 63.7053 661.386 64.1139C662.188 64.5225 672.472 65.926 679.262 60.2767C686.053 54.6274 689.296 44.7501 689.296 44.7501C689.296 44.7501 679.904 39.7226 676.001 36.0808C672.098 32.439 670.69 28.4241 670.69 28.4241L656.146 47.7701Z" fill="#FFBC9A"/>
<path d="M664.541 46.4912C664.612 53.615 652.154 61.9112 651.21 64.5582C650.265 67.2052 649.303 80.0137 664.541 82.3943C679.779 84.7748 707.386 64.5582 707.386 64.5582L712.145 48.6941C712.145 48.6941 699.33 47.717 689.296 44.7502C681.722 42.5119 664.541 46.4912 664.541 46.4912Z" fill="#FFBC9A"/>
<g style="mix-blend-mode:multiply">
<path d="M706.37 53.5794C700.239 57.31 695.142 62.2664 687.603 62.8704C680.973 63.4034 676.143 65.1088 672.739 59.2997C670.44 55.3559 672.008 48.7295 672.739 44.9989C673.47 41.2682 671.313 35.1038 672.008 31.0889C671.099 29.5256 670.707 28.4419 670.707 28.4419L656.164 47.788C657.429 50.6481 658.802 53.3839 659.657 55.7644C656.075 59.7083 651.78 63.0659 651.227 64.5759C650.283 67.2229 649.32 80.0314 664.558 82.4119C679.797 84.7924 707.404 64.5759 707.404 64.5759L711.485 50.9501C709.738 51.7318 708.01 52.5845 706.37 53.5971V53.5794Z" fill="#FFDECF"/>
</g>
<path d="M666.786 86.2314C666.786 86.2314 658.712 87.7947 650.692 89.4824C643.955 90.9036 637.219 92.3958 635.365 93.1242C631.302 94.6875 626.525 94.1723 621.089 92.9466C615.653 91.703 566.428 81.3816 566.428 81.3816L567.675 78.2371L568.477 76.2119L570.491 71.1667C570.491 71.1667 591.272 73.9203 599.613 73.565C607.954 73.2274 628.735 73.6893 630.927 72.7478C631.212 72.6234 631.783 72.3214 632.531 71.9128C634.741 70.7048 638.591 68.4842 642.227 66.3524C646.878 63.6343 651.209 61.0762 651.209 61.0762L666.786 86.2314Z" fill="#FFBC9A"/>
<g style="mix-blend-mode:multiply">
<path d="M650.692 89.4823C643.955 90.9035 637.219 92.3958 635.365 93.1241C631.302 94.6874 626.525 94.1723 621.089 92.9465C615.653 91.7029 566.428 81.3815 566.428 81.3815L567.675 78.2371C565.394 78.0239 557.41 77.2067 554.255 75.6256C550.548 73.7958 548.837 74.8084 545.005 73.1385C544.292 72.8187 543.722 72.499 543.312 72.1614C547.857 73.8847 553.489 72.6233 558.55 73.2096C562.008 73.5826 565.252 74.8795 568.477 76.2119C568.62 76.2829 568.745 76.3362 568.887 76.3895C570.937 77.2422 572.986 78.1127 575.09 78.77C578.28 79.7826 581.595 80.2978 584.91 80.8308C596.263 82.625 607.722 84.3838 619.236 83.9752C623.852 83.8153 629.181 82.856 631.462 78.8411C632.638 76.7626 632.692 74.3643 632.531 71.9127C634.741 70.7047 638.591 68.4841 642.227 66.3523C644.686 67.507 646.754 69.4256 647.912 71.8772C649.177 74.5597 649.374 77.6153 649.677 80.5643C649.98 83.531 650.425 86.4978 650.692 89.4823Z" fill="#FFDECF"/>
</g>
<path d="M790.135 310.372C786.981 319.13 783.63 317.993 786.232 321.031C788.834 324.069 796.872 323.856 799.902 321.209C802.914 318.562 804.661 306.482 804.661 306.482L790.135 310.372Z" fill="#CFCFCF"/>
<path d="M736.49 188.487C736.49 188.487 752.191 234.605 753.581 240.662C754.972 246.72 758.251 252.796 761.53 259.333C764.81 265.853 785.056 298.505 785.056 298.505C785.056 298.505 793.343 297.102 799.884 294.295C799.884 294.295 793.825 275.5 786.785 253.151C784.985 247.431 783.612 242.67 783.006 240.272C780.672 230.945 777.071 197.938 775.681 187.208C775.681 187.208 761.281 173.564 736.49 188.469V188.487Z" fill="#FFBC9A"/>
<path d="M783.024 295.183C783.024 295.183 792.684 293.016 798.102 288.273L804.661 306.482C804.661 306.482 802.059 311.669 797.068 311.882C792.078 312.096 790.135 310.372 790.135 310.372L783.006 295.183H783.024Z" fill="#CFCFCF"/>
<g style="mix-blend-mode:multiply">
<path d="M798.084 288.273C798.084 288.273 798.013 288.326 797.977 288.361C795.643 281.096 791.436 267.896 786.785 253.151C784.985 247.431 783.612 242.67 783.006 240.272C780.672 230.945 777.071 197.938 775.681 187.208C775.681 187.208 761.281 173.564 736.49 188.469C736.49 188.469 741.854 204.209 746.577 218.51C767.216 222.933 774.576 251.659 781.099 270.277C783.167 276.157 787.195 281.859 791.009 287.846C791.811 289.09 792.524 290.369 793.201 291.684C793.272 291.826 793.343 291.986 793.415 292.128C794.056 293.389 794.644 294.686 795.161 296C796.765 299.998 797.817 304.208 798.173 308.489C798.369 310.71 798.387 312.966 798.209 315.204C797.995 317.763 797.55 320.25 796.926 322.683C798.102 322.346 799.118 321.848 799.849 321.209C802.861 318.562 804.607 306.482 804.607 306.482L798.049 288.273H798.084Z" fill="#FFDECF"/>
</g>
<path d="M709.524 158.464L706.405 171.041L702.68 186.106L669.192 211.51C669.192 211.51 674.2 226.877 679.458 247.093C681.953 256.633 684.911 265.054 687.3 271.147C689.777 277.507 691.613 281.344 691.613 281.344L683.664 284.737L675.875 288.059L675.359 288.273C675.359 288.273 675.198 287.686 674.877 286.674C674.182 284.56 672.739 280.598 670.44 276.494C669.762 275.233 668.978 273.972 668.123 272.746C663.132 265.551 640.872 227.285 636.987 218.971C633.084 210.64 634.189 202.876 636.987 196.232C638.591 192.377 644.294 186.142 651.886 178.858C657.322 173.635 663.738 167.879 670.297 162.088C670.404 161.999 670.511 161.893 670.618 161.804L709.524 158.464Z" fill="#FFBC9A"/>
<path d="M783.024 210.284C783.024 210.284 778.943 206.074 759.748 210.267C746.31 213.216 739.823 218.74 739.823 218.74C739.823 218.74 728.416 197.902 724.584 190.974C724.495 190.814 724.406 190.654 724.335 190.494C719.184 181.239 707.047 159.654 704.142 150.505L722.054 142.262L743.708 132.314L754.027 127.571C754.027 127.571 767.109 139.562 771.226 152.548C773.329 159.157 778.836 187.936 781.527 202.201C782.436 207.104 783.024 210.284 783.024 210.284Z" fill="#1E55A7"/>
<path d="M753.261 172.107C749.981 180.368 744.385 181.274 738.557 183.459C736.989 184.045 735.42 184.721 733.852 185.644C732.159 186.657 728.683 188.398 724.335 190.494C709.774 197.476 685.428 208.277 685.428 208.277C685.428 208.277 681.543 204.084 671.99 193.852C666.697 188.185 660.726 184.312 656.574 182.02C653.384 180.279 651.263 179.462 651.263 179.462C651.263 179.462 665.057 164.095 671.937 157.238C678.816 150.381 695.035 135.192 695.035 135.192L743.708 132.314L744.652 132.26C744.652 132.26 757.431 161.644 753.261 172.107Z" fill="#1E55A7"/>
<g style="mix-blend-mode:multiply">
<path d="M783.024 210.284C783.024 210.284 778.943 206.074 759.748 210.267C746.31 213.216 739.822 218.741 739.822 218.741C739.822 218.741 728.416 197.902 724.584 190.974C724.495 190.814 724.406 190.654 724.335 190.494C709.774 197.476 685.428 208.277 685.428 208.277C685.428 208.277 681.543 204.084 671.99 193.852C666.697 188.185 660.726 184.312 656.574 182.02C657.893 182.003 659.176 182.003 660.459 182.038C669.994 182.305 679.868 183.868 688.797 180.564C682.202 175.98 675.073 172.178 667.588 169.265C680.723 171.344 693.734 174.364 706.441 178.29C700.31 171.628 694.161 164.984 688.03 158.34C695.017 160.525 701.558 164.149 707.118 168.91C705.55 159.139 701.379 149.777 695.142 142.085C703.857 143.861 713.16 142.653 721.144 138.709C721.447 139.899 721.75 141.072 722.053 142.262C724.691 152.459 727.311 162.692 729.949 172.907C734.797 170.135 738.931 166.156 741.908 161.431C741.23 168.839 740.108 176.193 738.557 183.459C737.595 187.9 736.472 192.324 735.189 196.694C742.514 186.39 751.033 175.27 763.473 172.854C762.421 185.182 743.155 189.748 742.389 202.112C754.776 197.032 769.123 197.227 781.527 202.201C782.436 207.104 783.024 210.284 783.024 210.284Z" fill="#C1D1D4"/>
</g>
<path d="M676 86.6577C676 86.6577 673.131 88.9139 667.945 91.1878C662.758 93.4439 642.351 98.4714 642.351 98.4714C642.351 98.4714 642.351 96.0198 641.068 90.9391C640.266 87.7414 637.86 80.2445 636.185 75.1638C635.205 72.1792 634.492 70.0297 634.492 70.0297C634.492 70.0297 644.383 64.2916 647.645 63.3323L656.021 70.2251L676 86.6577Z" fill="#068ABA"/>
<g style="mix-blend-mode:multiply">
<path d="M676 86.6577C676 86.6577 673.131 88.9139 667.945 91.1878C662.758 93.4439 642.352 98.4714 642.352 98.4714C642.352 98.4714 642.352 96.0199 641.068 90.9391C640.266 87.7414 637.86 80.2446 636.185 75.1638C638.555 77.864 640.783 80.6709 642.886 83.5666C647.467 84.597 651.209 79.907 653.027 75.6079C653.883 73.5827 654.899 71.8417 656.021 70.2251L676 86.6577Z" fill="#C1D1D4"/>
</g>
<path d="M760.336 130.768C760.336 130.768 756.041 142.031 745.009 147.929C733.995 153.809 722.446 152.211 712.144 151.127C701.861 150.061 685.09 144.98 684.003 141.765C682.933 138.549 686.302 131.035 677.765 120.145C674.539 116.041 664.826 100.443 660.744 91.3478C660.531 90.8859 660.352 90.4596 660.174 90.0332C656.52 81.1862 647.378 64.2207 647.645 63.3324C647.912 62.4264 660.388 53.0643 660.388 53.0643C660.37 58.4648 662.634 63.3324 673.666 63.3324C684.698 63.3324 688.583 48.0012 689.296 44.7502L716.529 48.0012C716.529 48.0012 721.911 54.9651 725.137 61.929C726.331 64.5227 728.559 69.0705 731.214 74.3112C735.67 83.1759 741.302 94.0303 745.009 100.781C750.926 111.493 760.336 130.768 760.336 130.768Z" fill="#068ABA"/>
<g style="mix-blend-mode:multiply">
<path d="M760.337 130.768C760.337 130.768 756.041 142.031 745.009 147.929C733.995 153.809 722.446 152.211 712.145 151.127C701.861 150.061 685.09 144.98 684.003 141.765C682.934 138.549 686.302 131.035 677.765 120.145C674.539 116.041 664.826 100.443 660.745 91.3478C661.048 91.1168 661.404 90.9925 661.85 91.0635C665.895 96.4463 670.422 101.474 675.359 106.039C680.314 110.623 685.803 114.833 692.201 117C698.6 119.186 706.031 119.079 711.735 115.455C695.374 110.001 677.676 103.481 668.854 88.7186C676.197 93.6928 683.843 98.2051 691.756 102.238C698.76 105.826 706.762 109.095 714.319 106.857C698.813 96.0733 699.883 91.1701 694.803 85.6275C700.025 89.8022 713.125 97.2458 719.808 97.5478C712.162 86.3025 705.069 72.7834 703.572 59.282C710.968 66.157 720.022 71.2201 729.771 73.9203C730.252 74.0447 730.733 74.1868 731.215 74.3112C735.67 83.1759 741.302 94.0303 745.009 100.781C750.926 111.493 760.337 130.768 760.337 130.768Z" fill="#C1D1D4"/>
</g>
<path d="M745.9 126.309C739.52 139.278 729.504 152.424 729.504 152.424L724.798 152.921L714.675 153.969C714.675 153.969 723.07 133.238 724.513 124.373C725.975 115.49 729.414 107.283 729.414 107.283C729.414 107.283 722.446 100.266 719.808 97.5477C719.808 97.5477 719.897 97.2279 720.075 96.6772C720.717 94.6875 722.535 89.6778 725.422 85.8406C729.111 80.9552 737.702 77.5798 737.702 77.5798C737.702 77.5798 755.293 98.1339 755.596 103.694C755.899 109.273 752.281 113.323 745.9 126.309Z" fill="#FFBC9A"/>
<path d="M729.503 152.424C728.078 155.604 727.543 163.669 727.062 165.801C726.563 167.933 723.872 173.919 722.82 175.643C721.751 177.348 716.76 177.348 714.675 177.597C712.59 177.828 711.111 176.371 708.491 175.643C705.853 174.897 705.978 173.689 704.427 172.463C702.895 171.237 702.289 171.734 702.289 169.532C702.289 169.389 702.289 169.247 702.306 169.105C702.502 166.991 704.178 164.504 706.709 162.443C709.4 160.24 711.36 158.038 714.675 153.969L724.798 152.921L729.503 152.424Z" fill="#FFBC9A"/>
<g style="mix-blend-mode:multiply">
<path d="M745.9 126.309C739.52 139.278 729.503 152.424 729.503 152.424C728.078 155.604 727.543 163.669 727.062 165.801C726.563 167.933 723.872 173.919 722.82 175.643C721.751 177.348 716.76 177.348 714.675 177.597C712.59 177.828 711.111 176.371 708.491 175.643C705.853 174.896 705.978 173.688 704.427 172.463C702.895 171.237 702.289 171.734 702.289 169.531C702.289 169.389 702.289 169.247 702.306 169.105C705.978 168.679 709.631 167.933 713.196 166.902C715.21 166.334 717.242 165.623 718.81 164.255C720.557 162.71 721.519 160.507 722.446 158.393C723.23 156.563 724.014 154.751 724.798 152.921C730.519 139.633 736.223 126.345 741.944 113.057C743.316 109.877 744.706 106.412 743.904 103.037C742.924 99.0577 738.985 96.3397 734.939 95.558C730.894 94.7586 726.741 95.5402 722.695 96.3041L720.075 96.6772C720.717 94.6875 722.535 89.6778 725.422 85.8406C729.111 80.9552 737.702 77.5798 737.702 77.5798C737.702 77.5798 755.293 98.1339 755.596 103.694C755.899 109.273 752.281 113.323 745.9 126.309Z" fill="#FFDECF"/>
</g>
<path d="M716.529 48.0012C708.152 49.2448 701.879 53.4195 698.938 60.0992C696.015 66.7788 696.425 75.9633 696.425 75.9633C696.425 75.9633 705.211 85.1478 711.075 90.9925C716.939 96.8372 723.711 101.509 723.711 101.509C723.711 101.509 727.276 94.6876 734.387 90.0865C741.498 85.5031 749.197 86.4447 749.197 86.4447C749.197 86.4447 737.025 70.1364 730.323 61.3605C723.622 52.6024 716.511 48.0012 716.511 48.0012H716.529Z" fill="#068ABA"/>
<path d="M636.31 20.1456C636.506 25.9903 637.326 31.4442 638.538 33.4516C639.75 35.4591 640.962 36.6848 642.174 41.3215C643.386 45.9582 647.431 50.1862 651.477 53.6149C655.523 57.0435 661.582 55.8355 664.63 53.6149C667.66 51.3943 673.559 43.7375 673.131 39.2963C672.704 34.8551 677.783 29.2236 675.359 21.3537C672.935 13.4838 653.313 8.45628 648.055 11.6717C642.797 14.905 636.328 20.1456 636.328 20.1456H636.31Z" fill="#FFBC9A"/>
<path d="M636.31 20.1456C636.524 23.219 642.173 23.7697 646.023 22.7748C649.873 21.7622 651.477 17.7296 655.736 15.9176C659.978 14.1055 662.812 15.1537 662.616 19.5771C662.42 23.9829 661.422 24.9955 662.616 26.4167C663.828 27.8201 665.039 30.4493 666.038 31.4619C667.053 32.4745 668.051 30.6625 668.051 29.4545C668.051 28.2465 667.036 23.4499 669.067 23.4321C671.081 23.4144 673.309 26.4344 672.507 29.8631C671.705 33.2917 672.24 33.8957 672.685 34.9083C673.113 35.9209 676.767 38.1416 677.373 38.1416C677.979 38.1416 676.963 32.1015 678.175 28.2642C679.387 24.427 680.402 15.9708 676.553 9.11356C672.703 2.25627 664.416 -1.17237 655.308 0.444246C646.201 2.06086 635.579 10.1262 636.292 20.1989L636.31 20.1456Z" fill="#262A2D"/>
<path d="M570.491 71.1667L568.887 76.3896C568.887 76.3896 557.41 77.2068 554.255 75.6257C550.548 73.7959 548.837 74.8085 545.005 73.1386C544.292 72.8189 543.722 72.4991 543.312 72.1616C543.134 72.0194 542.991 71.8951 542.866 71.753C542.617 71.4865 542.457 71.22 542.403 70.9713C542.171 70.0298 543.152 69.3014 545.005 69.3369C548.231 69.3725 553.56 67.4716 556.661 67.4894C559.762 67.5071 565.893 69.6922 570.491 71.1667Z" fill="#FFBC9A"/>
<path d="M544.488 77.8818C542.938 79.2142 543.864 80.44 544.488 81.6835C545.112 82.9271 545.878 83.691 546.966 85.6984C548.053 87.7059 550.53 87.4038 552.223 88.6296C553.934 89.8732 554.736 90.6371 556.411 89.3935C558.105 88.15 558.675 87.6881 560.742 85.5385C562.81 83.3712 561.045 82.3941 559.816 82.5718C559.816 82.5718 560.279 81.346 559.423 80.5288C558.568 79.7116 557.481 79.5872 557.481 79.5872C557.481 79.5872 556.608 77.4199 555.984 76.9758C555.36 76.5317 552.669 76.9758 552.669 76.9758C552.669 76.9758 552.669 74.1512 551.35 74.5775C550.013 75.0039 544.488 77.864 544.488 77.864V77.8818Z" fill="#FFBC9A"/>
<path d="M693.466 283.529C693.466 283.529 690.508 288.734 684.84 289.392C684.591 289.427 684.323 289.445 684.056 289.463C679.315 289.641 676.784 288.557 675.876 288.059C675.59 287.9 675.466 287.793 675.466 287.793L674.877 286.674L669.602 276.708C669.887 276.637 670.155 276.565 670.44 276.494C673.434 275.766 676.428 274.949 679.387 273.99C682.078 273.137 684.733 272.195 687.3 271.147C687.621 271.023 687.941 270.898 688.262 270.756L693.466 283.529Z" fill="#CFCFCF"/>
<g style="mix-blend-mode:multiply">
<path d="M702.681 186.106L669.192 211.51C669.192 211.51 674.2 226.877 679.458 247.093C681.953 256.633 684.912 265.054 687.3 271.147C687.621 271.023 687.941 270.899 688.262 270.756L693.466 283.529C693.466 283.529 690.508 288.735 684.84 289.392C684.698 288.646 684.537 287.9 684.341 287.153C684.145 286.336 683.914 285.537 683.664 284.737C682.541 281.06 681.044 277.489 679.387 273.99C675.501 265.676 670.832 257.646 668.497 248.799C666.751 242.119 666.376 235.138 664.558 228.476C662.723 221.814 659.033 215.152 652.796 212.167C649.106 210.409 644.793 210.036 641.354 207.833C645.168 207.229 648.982 208.526 652.813 209.005C656.645 209.485 661.136 208.81 663.186 205.541C664.042 204.173 664.327 202.503 664.344 200.887C664.451 190.725 655.291 187.527 652.047 179.338C651.976 179.178 651.922 179.018 651.887 178.858C657.322 173.635 663.739 167.879 670.297 162.088C679.048 161.058 688.031 161.733 696.158 165.001C699.847 166.476 703.322 168.537 706.406 171.042L702.681 186.106Z" fill="#FFDECF"/>
</g>
<path d="M675.466 287.793C671.562 297.404 664.861 300.637 668.087 303.977C671.313 307.299 683.806 302.609 687.549 299.695C691.292 296.782 693.448 283.529 693.448 283.529L675.466 287.793Z" fill="#CFCFCF"/>
<g style="mix-blend-mode:multiply">
<path d="M683.664 284.737C679.761 294.348 664.862 300.655 668.087 303.977C671.313 307.299 683.807 302.609 687.55 299.695C691.292 296.782 693.449 283.529 693.449 283.529L683.647 284.737H683.664Z" fill="#FFDECF"/>
</g>
<path d="M697.298 292.625C699.9 296.906 703.269 296.924 700.756 301.667C699.811 303.444 695.498 305.487 692.059 307.885C686.338 311.864 680.296 316.217 676.197 317.407C654.524 323.714 654.524 315.56 654.524 315.56L697.316 292.625H697.298Z" fill="#CFCFCF"/>
<path d="M674.093 289.481C677.889 292.625 683.111 293.069 687.567 291.63C692.005 290.173 693.466 283.529 693.466 283.529C693.466 283.529 694.928 286.283 696.656 289.481C697.53 291.079 698.884 293.158 699.312 294.33C700.631 297.812 694.215 302.822 687.567 308.045C680.901 313.268 672.525 316.945 662.526 318.491C653.134 319.948 653.597 316.466 656.093 311.243C656.93 309.484 662.295 305.38 665.022 302.111C670.333 295.698 674.111 289.498 674.111 289.498L674.093 289.481Z" fill="#068ABA"/>
<g style="mix-blend-mode:multiply">
<path d="M699.312 294.33C698.866 293.158 697.53 291.097 696.656 289.481C694.928 286.283 693.466 283.529 693.466 283.529C693.466 283.529 693.039 285.483 691.934 287.509C691.185 306.517 675.501 315.364 656.823 318.615C658.071 318.899 659.907 318.899 662.526 318.491C672.525 316.945 680.919 313.268 687.567 308.045C694.233 302.822 700.631 297.812 699.312 294.33Z" fill="#C1D1D4"/>
</g>
<path d="M810.329 316.43C813.804 319.77 815.248 320.925 812.752 326.716C811.826 328.883 806.693 330.589 803.307 333.52C797.657 338.388 794.199 340.981 790.136 342.438C768.767 350.148 768.767 340.182 768.767 340.182L810.311 316.43H810.329Z" fill="#CFCFCF"/>
<path d="M788.728 313.694C792.47 317.532 794.484 318.171 798.869 316.395C803.253 314.618 804.696 306.5 804.696 306.5C804.696 306.5 806.122 309.271 808.386 312.06C809.705 313.694 810.917 316.324 811.344 317.745C812.645 322.008 807.94 324.602 801.382 330.98C794.805 337.357 786.553 341.852 776.68 343.753C767.412 345.529 767.875 341.266 770.335 334.888C771.172 332.721 778.426 327.995 781.331 324.14C786.821 316.839 788.745 313.677 788.745 313.677L788.728 313.694Z" fill="#068ABA"/>
<g style="mix-blend-mode:multiply">
<path d="M810.97 316.732C801.845 329.843 785.716 337.055 769.159 338.388C768.071 342.705 769.248 345.156 776.662 343.735C786.536 341.834 794.787 337.357 801.364 330.962C807.94 324.584 812.628 321.973 811.327 317.727C811.237 317.443 811.113 317.087 810.97 316.714V316.732Z" fill="#C1D1D4"/>
</g>
<path d="M518.575 321.76L513.62 326.929V158.055H518.575V321.76Z" fill="#184E77"/>
<path d="M513.62 326.929L506.955 326.379V162.674L513.62 156.332V326.929Z" fill="#7FABCC"/>
<path d="M392.427 330.393L395.065 331.424L513.371 286.372H507.721L392.427 330.393Z" fill="#7FABCC"/>
<path d="M395.065 331.424L395.903 338.548L513.62 292.803L513.37 286.372L395.065 331.424Z" fill="#184E77"/>
<path d="M398.433 365.817L393.497 370.986V178.219H398.433V365.817Z" fill="#184E77"/>
<path d="M393.497 370.986L386.831 370.436V182.837L393.497 176.495V370.986Z" fill="#7FABCC"/>
<path d="M541.619 479.086L536.683 484.256V280.829H541.619V479.086Z" fill="#184E77"/>
<path d="M536.682 484.256L529.999 483.705V285.448L536.682 279.106V484.256Z" fill="#7FABCC"/>
<path d="M415.472 493.725L418.109 494.773L536.415 443.698H530.765L415.472 493.725Z" fill="#7FABCC"/>
<path d="M418.109 494.773L418.947 501.879L536.682 450.129L536.415 443.698L418.109 494.773Z" fill="#184E77"/>
<path d="M421.496 529.148L416.541 534.318V330.891H421.496V529.148Z" fill="#184E77"/>
<path d="M416.541 534.318L409.875 533.767V335.51L416.541 329.168V534.318Z" fill="#7FABCC"/>
<path d="M744.777 388.467L739.823 393.637V190.21H744.777V388.467Z" fill="#184E77"/>
<path d="M739.823 393.637L733.157 393.086V194.829L739.823 188.487V393.637Z" fill="#7FABCC"/>
<path d="M618.63 403.105L621.268 404.153L739.573 353.079H733.923L618.63 403.105Z" fill="#7FABCC"/>
<path d="M621.268 404.153L622.105 411.259L739.823 359.51L739.573 353.079L621.268 404.153Z" fill="#184E77"/>
<path d="M624.636 438.529L619.699 443.698V240.271H624.636V438.529Z" fill="#184E77"/>
<path d="M619.699 443.698L613.034 443.148V244.89L619.699 238.548V443.698Z" fill="#7FABCC"/>
<path d="M240.188 417.992L235.233 423.162V243.629H240.188V417.992Z" fill="#184E77"/>
<path d="M235.233 423.162L228.567 422.611V248.248L235.233 241.906V423.162Z" fill="#7FABCC"/>
<path d="M114.04 426.626L116.678 427.675L234.983 382.605H229.334L114.04 426.626Z" fill="#7FABCC"/>
<path d="M116.678 427.675L117.515 434.781L235.233 389.036L234.983 382.605L116.678 427.675Z" fill="#184E77"/>
<path d="M120.046 462.05L115.109 467.219V263.792H120.046V462.05Z" fill="#184E77"/>
<path d="M115.109 467.219L108.444 466.669V268.411L115.109 262.069V467.219Z" fill="#7FABCC"/>
<path d="M362.165 358.338L68.8604 261.075V245.228L501.839 188.682L769.497 182.34V198.186L362.165 358.338Z" fill="#184E77"/>
<path d="M362.165 336.487L68.8604 245.228L501.839 148.995L769.497 182.34L362.165 336.487Z" fill="#176C95" stroke="white" stroke-width="2" stroke-linecap="round" stroke-linejoin="round"/>
<path d="M319.73 190.761L317.52 191.436V153.863L319.73 153.188V190.761Z" fill="#BAC7DF"/>
<path d="M317.519 191.436L314.187 190.423V152.85L317.519 153.863V191.436Z" fill="white"/>
<path d="M319.729 153.188L316.396 152.193L314.187 152.85L317.519 153.863L319.729 153.188Z" fill="#BAC7DF"/>
<path d="M319.729 157.842V188.487" stroke="white" stroke-width="0.25" stroke-miterlimit="10"/>
<path d="M324.648 158.997V189.659" stroke="white" stroke-width="0.25" stroke-miterlimit="10"/>
<path d="M329.585 160.169V190.814" stroke="white" stroke-width="0.25" stroke-miterlimit="10"/>
<path d="M334.504 161.324V191.986" stroke="white" stroke-width="0.25" stroke-miterlimit="10"/>
<path d="M339.423 162.497V193.141" stroke="white" stroke-width="0.25" stroke-miterlimit="10"/>
<path d="M344.36 163.669V194.314" stroke="white" stroke-width="0.25" stroke-miterlimit="10"/>
<path d="M349.279 164.824V195.468" stroke="white" stroke-width="0.25" stroke-miterlimit="10"/>
<path d="M354.198 165.996V196.641" stroke="white" stroke-width="0.25" stroke-miterlimit="10"/>
<path d="M359.117 167.151V197.813" stroke="white" stroke-width="0.25" stroke-miterlimit="10"/>
<path d="M364.054 168.323V198.968" stroke="white" stroke-width="0.25" stroke-miterlimit="10"/>
<path d="M368.973 169.478V200.14" stroke="white" stroke-width="0.25" stroke-miterlimit="10"/>
<path d="M373.892 170.651V201.295" stroke="white" stroke-width="0.25" stroke-miterlimit="10"/>
<path d="M378.829 171.805V202.468" stroke="white" stroke-width="0.25" stroke-miterlimit="10"/>
<path d="M383.748 172.978V203.622" stroke="white" stroke-width="0.25" stroke-miterlimit="10"/>
<path d="M388.667 174.15V204.795" stroke="white" stroke-width="0.25" stroke-miterlimit="10"/>
<path d="M393.604 175.305V205.95" stroke="white" stroke-width="0.25" stroke-miterlimit="10"/>
<path d="M398.522 176.478V207.122" stroke="white" stroke-width="0.25" stroke-miterlimit="10"/>
<path d="M403.441 177.632V208.295" stroke="white" stroke-width="0.25" stroke-miterlimit="10"/>
<path d="M408.378 178.805V209.449" stroke="white" stroke-width="0.25" stroke-miterlimit="10"/>
<path d="M413.297 179.959V210.622" stroke="white" stroke-width="0.25" stroke-miterlimit="10"/>
<path d="M418.216 181.132V211.776" stroke="white" stroke-width="0.25" stroke-miterlimit="10"/>
<path d="M423.153 182.304V212.949" stroke="white" stroke-width="0.25" stroke-miterlimit="10"/>
<path d="M428.072 183.459V214.104" stroke="white" stroke-width="0.25" stroke-miterlimit="10"/>
<path d="M432.991 184.632V215.276" stroke="white" stroke-width="0.25" stroke-miterlimit="10"/>
<path d="M437.928 185.786V216.449" stroke="white" stroke-width="0.25" stroke-miterlimit="10"/>
<path d="M442.847 186.959V217.603" stroke="white" stroke-width="0.25" stroke-miterlimit="10"/>
<path d="M447.766 188.114V218.776" stroke="white" stroke-width="0.25" stroke-miterlimit="10"/>
<path d="M452.703 189.286V219.931" stroke="white" stroke-width="0.25" stroke-miterlimit="10"/>
<path d="M457.622 190.441V221.103" stroke="white" stroke-width="0.25" stroke-miterlimit="10"/>
<path d="M462.541 191.613V222.258" stroke="white" stroke-width="0.25" stroke-miterlimit="10"/>
<path d="M467.478 192.786V223.43" stroke="white" stroke-width="0.25" stroke-miterlimit="10"/>
<path d="M472.396 193.94V224.585" stroke="white" stroke-width="0.25" stroke-miterlimit="10"/>
<path d="M477.316 195.113V225.758" stroke="white" stroke-width="0.25" stroke-miterlimit="10"/>
<path d="M482.252 196.268V226.93" stroke="white" stroke-width="0.25" stroke-miterlimit="10"/>
<path d="M487.171 197.44V228.085" stroke="white" stroke-width="0.25" stroke-miterlimit="10"/>
<path d="M492.09 198.595V229.257" stroke="white" stroke-width="0.25" stroke-miterlimit="10"/>
<path d="M497.027 199.767V230.412" stroke="white" stroke-width="0.25" stroke-miterlimit="10"/>
<path d="M501.946 200.94V231.585" stroke="white" stroke-width="0.25" stroke-miterlimit="10"/>
<path d="M506.865 202.095V232.739" stroke="white" stroke-width="0.25" stroke-miterlimit="10"/>
<path d="M511.802 203.267V233.912" stroke="white" stroke-width="0.25" stroke-miterlimit="10"/>
<path d="M516.721 204.422V235.084" stroke="white" stroke-width="0.25" stroke-miterlimit="10"/>
<path d="M521.64 205.594V236.239" stroke="white" stroke-width="0.25" stroke-miterlimit="10"/>
<path d="M526.577 206.749V237.411" stroke="white" stroke-width="0.25" stroke-miterlimit="10"/>
<path d="M531.496 207.922V238.566" stroke="white" stroke-width="0.25" stroke-miterlimit="10"/>
<path d="M536.415 209.076V239.739" stroke="white" stroke-width="0.25" stroke-miterlimit="10"/>
<path d="M541.298 210.231V240.893" stroke="white" stroke-width="0.25" stroke-miterlimit="10"/>
<path d="M546.217 211.404V242.048" stroke="white" stroke-width="0.25" stroke-miterlimit="10"/>
<path d="M551.154 212.576V243.221" stroke="white" stroke-width="0.25" stroke-miterlimit="10"/>
<path d="M556.073 213.731V244.375" stroke="white" stroke-width="0.25" stroke-miterlimit="10"/>
<path d="M560.992 214.903V245.548" stroke="white" stroke-width="0.25" stroke-miterlimit="10"/>
<path d="M565.929 216.058V246.72" stroke="white" stroke-width="0.25" stroke-miterlimit="10"/>
<path d="M570.848 217.23V247.875" stroke="white" stroke-width="0.25" stroke-miterlimit="10"/>
<path d="M575.767 218.385V249.047" stroke="white" stroke-width="0.25" stroke-miterlimit="10"/>
<path d="M580.704 219.558V250.202" stroke="white" stroke-width="0.25" stroke-miterlimit="10"/>
<path d="M319.729 163.936L580.704 225.651" stroke="white" stroke-width="0.25" stroke-miterlimit="10"/>
<path d="M319.729 168.839L580.704 230.572" stroke="white" stroke-width="0.25" stroke-miterlimit="10"/>
<path d="M319.729 173.76L580.704 235.475" stroke="white" stroke-width="0.25" stroke-miterlimit="10"/>
<path d="M319.729 178.663L580.704 240.378" stroke="white" stroke-width="0.25" stroke-miterlimit="10"/>
<path d="M319.729 183.584L580.704 245.299" stroke="white" stroke-width="0.25" stroke-miterlimit="10"/>
<path d="M319.729 188.487L580.704 250.202" stroke="white" stroke-width="0.25" stroke-miterlimit="10"/>
<path d="M585.142 253.009L582.932 253.667V216.094L585.142 215.436V253.009Z" fill="#BAC7DF"/>
<path d="M582.931 253.666L579.599 252.672V215.099L582.931 216.093V253.666Z" fill="white"/>
<path d="M585.141 215.436L581.791 214.441L579.599 215.099L582.931 216.094L585.141 215.436Z" fill="#BAC7DF"/>
<path d="M581.791 221.814L318.339 159.494V155.515L581.791 217.817V221.814Z" fill="white"/>
<path d="M219.531 292.11L628.432 164.771" stroke="white" stroke-width="2" stroke-linecap="round" stroke-linejoin="round"/>
<path d="M228.033 534.744C226.518 537.782 226.233 540.998 231.758 545.261C237.283 549.525 243.396 550.52 247.994 552.278C252.61 554.037 261.397 557.039 272.946 556.791C284.495 556.542 289.538 553.913 289.538 553.913C289.538 553.913 267.51 547.517 259.044 542.756C250.578 537.995 229.601 531.547 228.015 534.744H228.033Z" fill="#ECECEC"/>
<path d="M220.922 151.447C220.922 151.447 215.611 154.787 212.153 163.829C212.046 164.131 211.922 164.433 211.815 164.735C210.353 168.626 209.034 172.623 208.018 175.874C206.717 179.977 205.898 182.891 205.898 182.891L176.58 180.12C176.58 180.12 177.845 177.135 179.485 173.316C181.677 168.306 184.546 161.857 186.15 158.837L200.248 147.912L202.28 148.267L220.922 151.447Z" fill="#FFBC9A"/>
<path d="M236.677 130.111C236.677 130.111 234.431 140.059 232.524 142.92C230.617 145.762 230.332 152.282 228.443 158.215C227.498 161.2 225.68 164.824 223.791 168.164C221.902 171.45 219.959 174.488 218.73 176.336C216.912 179.071 211.85 178.201 208.018 175.874C206.593 175.021 205.345 173.955 204.49 172.8C201.371 168.554 204.008 165.588 202.761 154.716L202.6 153.17C202.44 151.482 202.333 149.83 202.28 148.267C201.977 140.361 202.761 134.392 202.761 134.392L224.682 124.799C228.443 125.741 236.677 130.111 236.677 130.111Z" fill="#FFBC9A"/>
<g style="mix-blend-mode:multiply">
<path d="M211.815 164.735C209.818 161.999 198.893 171.024 188.717 174.701C185.188 175.98 181.606 176.584 177.988 176.815C177.132 178.805 176.58 180.119 176.58 180.119L205.898 182.891C205.898 182.891 206.717 179.977 208.018 175.874C211.85 178.201 216.912 179.071 218.73 176.335C219.959 174.488 212.581 165.801 211.815 164.735Z" fill="#FFDECF"/>
</g>
<path d="M186.15 158.837C186.15 158.837 198.376 160.702 203.064 158.837C203.064 158.837 210.905 151.607 214.024 148.835C217.143 146.064 215.361 143.026 217.161 139.704C218.961 136.4 220.298 136.56 222.971 136.897C225.645 137.235 223.755 144.287 222.971 146.099C222.187 147.912 225.627 147.236 226.571 145.851C227.516 144.465 228.14 139.917 230.332 136.737C232.524 133.54 233.326 132.296 236.677 130.111C240.045 127.926 240.455 127.038 240.687 124.799C241.061 121.388 237.835 118.155 234.342 114.496C230.474 110.427 224.843 104.636 219.425 102.451C205.648 96.8727 195.275 103.162 189.322 108.793C183.37 114.425 178.878 116.379 178.878 128.246C178.878 140.113 188.324 150.736 186.132 158.855L186.15 158.837Z" fill="#382C2E"/>
<path d="M287.168 409.981C287.061 421.492 262.306 498.735 260.363 507.457C258.438 508.541 257.333 510.655 248.636 507.564C248.101 507.368 247.584 507.173 247.103 506.942C243.36 505.254 241.186 502.856 241.186 502.856C241.186 502.856 242.647 482.338 244.537 456.294C246.051 435.154 249.776 417.3 249.776 417.3C249.776 417.3 204.24 399.766 185.081 393.388C174.922 390.013 190.944 380.26 208.214 371.857C223.47 364.414 239.707 358.036 239.707 358.036C239.707 358.036 265.888 378.537 272.981 383.475C280.075 388.432 287.293 396.923 287.168 409.981Z" fill="#FFBC9A"/>
<path d="M239.706 358.036C239.706 358.036 237.906 361.5 235.037 366.474C231.223 373.154 225.502 382.551 219.763 389.853C209.747 402.59 204.24 416.021 204.24 416.021C204.24 416.021 174.601 402.821 158.739 394.792C157.777 394.294 156.868 393.832 156.012 393.388C147.386 388.894 135.445 379.904 126.356 368.997C119.726 361.074 114.646 352.138 113.452 343.202L154.034 331.797H154.052L191.461 321.28C191.461 321.28 204.24 332.223 214.88 340.715C225.52 349.207 239.706 358.036 239.706 358.036Z" fill="#FF4029"/>
<path d="M142.913 398.984C139.58 402.306 99.6045 433.288 96.2717 437.232C92.9389 441.194 87.8416 446.772 82.8157 456.081C78.6096 463.898 62.8189 487.489 57.9177 494.791C56.9731 496.176 56.4385 496.976 56.4385 496.976C53.7473 497.953 50.361 497.225 47.1173 495.91C41.5389 493.672 36.4595 489.675 36.4595 489.675H36.4773L56.8127 442.171C57.5613 440.181 58.3098 438.263 59.0227 436.415C61.5713 429.842 63.7813 424.353 65.1893 421.546C68.4508 415.026 71.4984 407.849 75.8293 400.174C76.7739 398.469 77.7898 396.746 78.8948 395.005C82.4771 389.32 104.488 375.09 104.488 375.09C104.488 375.09 146.228 395.68 142.913 398.984Z" fill="#FFBC9A"/>
<path d="M181.908 374.717C181.908 374.717 179.948 376.422 176.829 379.105C175.296 380.455 173.478 382.018 171.464 383.742C167.668 387.046 163.213 390.919 158.739 394.791C148.081 403.994 137.37 413.196 135.499 414.706C131.578 417.833 124.164 418.614 117.587 419.058C105.806 419.876 78.8945 395.005 78.8945 395.005C78.8945 395.005 80.4629 388.734 82.8155 384.044C83.8314 382.001 88.8038 371.057 94.1327 359.262C101.155 343.753 108.765 326.787 108.765 326.787C119.512 329.718 138.778 331.122 154.034 331.797H154.052C166.706 332.348 176.579 332.401 176.579 332.401L181.623 372.443L181.908 374.717Z" fill="#FF4029"/>
<path d="M235.037 366.474C231.223 373.154 225.502 382.551 219.763 389.853C209.747 402.59 204.24 416.021 204.24 416.021C204.24 416.021 174.601 402.821 158.739 394.792C148.081 403.994 137.37 413.196 135.499 414.706C131.578 417.833 124.164 418.614 117.587 419.059C105.806 419.876 78.8945 395.005 78.8945 395.005C78.8945 395.005 80.4629 388.734 82.8155 384.044C83.8314 382.001 88.8038 371.058 94.1327 359.262C99.8359 370.454 109.763 379.567 121.775 383.44C116.928 377.933 112.597 371.946 108.854 365.621C105.985 360.807 103.757 353.932 107.945 350.201C111.527 358.409 118.247 365.177 126.356 368.997C128.352 369.938 130.437 370.702 132.594 371.271C130.687 364.094 128.797 356.934 126.89 349.757C134.019 358.96 143.18 366.865 154.07 371.022C162.803 374.362 172.73 375.09 181.623 372.443C183.815 371.786 185.936 370.933 187.968 369.867C184.92 373.651 181.089 376.796 176.829 379.105C173.764 380.793 170.449 382.036 167.009 382.8C168.488 383.12 169.967 383.44 171.464 383.742C177.257 384.95 183.138 385.856 189.02 385.341C197.36 384.612 205.149 381.041 212.741 377.524C220.262 374.042 227.837 370.542 235.037 366.474Z" fill="#E03824"/>
<path d="M19.7596 516.677C14.2525 518.916 7.64032 522.966 1.42028 528.171C-4.79976 533.394 14.4663 539.896 20.6685 537.942C26.8708 535.988 37.0296 535.65 41.4317 527.834C45.8339 519.999 33.6077 511.063 19.7596 516.677Z" fill="#ECECEC"/>
<path d="M58.2384 494.808L40.5229 516.677L37.5822 515.114L24.6074 508.239L36.4594 489.674H36.4772L38.099 487.116C38.099 487.116 40.7902 490.971 48.5608 493.263C51.1094 494.009 54.1927 494.577 57.9176 494.791C58.0245 494.791 58.1315 494.808 58.2384 494.808Z" fill="#E7E7E7"/>
<g style="mix-blend-mode:multiply">
<path d="M142.913 398.984C139.58 402.306 99.6042 433.288 96.2714 437.232C92.9386 441.194 87.8414 446.772 82.8155 456.081C78.6093 463.898 62.8186 487.489 57.9175 494.791C58.0244 494.791 58.1313 494.809 58.2383 494.809L40.5227 516.677L37.582 515.114C40.4336 508.559 43.7842 502.057 47.117 495.91C47.5983 495.022 48.0795 494.134 48.5607 493.263C55.2084 481.076 61.375 470.435 62.4978 463.844C63.7811 456.365 61.0186 448.762 56.8125 442.171C57.561 440.181 58.3096 438.263 59.0225 436.415C64.886 437.978 70.1793 443.006 74.528 447.696C81.6035 440.945 89.3206 432.098 86.772 422.665C84.7581 415.31 79.1084 407.369 75.829 400.174C76.7736 398.469 77.7895 396.746 78.8945 395.005C82.4768 389.32 104.488 375.09 104.488 375.09C104.488 375.09 146.228 395.68 142.913 398.984Z" fill="#FFDECF"/>
</g>
<path d="M42.3405 504.011C39.1681 504.011 33.0729 507.599 29.4727 506.622C25.8726 505.645 23.5913 505.325 20.6506 508.576C20.6506 508.576 10.1532 521.296 3.93313 526.199C3.16677 526.803 2.31129 527.478 1.40234 528.171C6.94513 527.549 24.2864 519.928 26.835 519.342C36.976 517.05 41.4138 527.816 41.4138 527.816C41.4138 527.816 46.7962 524.547 49.7547 516.659C52.6954 508.772 48.6319 503.993 42.3405 503.993V504.011Z" fill="#FF4029"/>
<path d="M42.3405 504.011C41.9663 504.011 41.5385 504.064 41.0752 504.153C37.4928 508.079 33.162 511.419 28.1182 514.101C22.2724 517.21 15.9811 519.36 10.0997 522.38C6.98077 523.978 4.21829 525.95 1.65186 528.136C7.40851 527.354 24.3577 519.91 26.8706 519.342C37.0116 517.05 41.4494 527.816 41.4494 527.816C41.4494 527.816 46.8318 524.547 49.7903 516.659C52.7489 508.772 48.6675 503.993 42.3762 503.993L42.3405 504.011Z" fill="#E03824"/>
<path d="M259.115 538.723C256.852 538.102 253.715 536.858 250.489 535.419C243.325 532.239 235.643 528.207 235.643 528.207C235.643 528.207 237.301 523.979 237.942 519.981C238.584 516.002 241.186 502.856 241.186 502.856C243.307 503.691 245.249 504.366 247.014 504.934C255.872 507.741 260.363 507.457 260.363 507.457C260.363 507.457 258.527 516.837 258.064 522.966C257.6 529.095 259.115 538.723 259.115 538.723Z" fill="#E7E7E7"/>
<g style="mix-blend-mode:multiply">
<path d="M260.969 422.523C260.078 431.494 256.834 440.057 254.268 448.691C248.867 466.9 246.461 485.961 247.014 504.934C247.032 505.61 247.067 506.285 247.103 506.942C247.477 516.499 248.6 526.039 250.489 535.419C243.325 532.239 235.643 528.207 235.643 528.207C235.643 528.207 237.301 523.979 237.942 519.981C238.584 516.002 241.186 502.856 241.186 502.856C241.186 502.856 242.647 482.337 244.537 456.294C246.051 435.154 249.776 417.3 249.776 417.3C249.776 417.3 204.24 399.766 185.081 393.388C174.922 390.013 190.944 380.26 208.214 371.857L218.124 382.392C227.48 393.459 239.19 402.519 252.271 408.79C252.788 404.971 253.287 401.134 253.804 397.296C260.078 403.798 261.878 413.551 260.969 422.523Z" fill="#FFDECF"/>
</g>
<path d="M234.609 520.212C236.249 514.883 241.061 520.603 244.982 524.192C248.796 527.674 253.02 521.722 258.064 522.948C263.107 524.174 265.727 528.846 271.573 536.769C275.298 541.815 285.92 548.21 288.184 549.258C291.998 551.035 291.605 552.58 289.556 553.895C286.277 555.973 272.054 555.423 269.167 555.423C259.81 555.423 247.887 548.441 242.309 544.87C235.322 540.393 227.748 537.373 228.033 534.726C228.532 529.983 231.918 528.899 234.609 520.195V520.212Z" fill="#FF4029"/>
<path d="M248.351 525.258C247.192 525.418 246.069 525.187 245 524.21C241.079 520.621 236.267 514.901 234.627 520.23C231.936 528.935 228.55 530.019 228.051 534.762C227.784 537.409 235.34 540.429 242.327 544.906C247.905 548.477 259.828 555.458 269.185 555.458C270.54 555.458 274.443 555.583 278.506 555.494C264.729 548.921 253.127 538.866 248.351 525.275V525.258Z" fill="#E03824"/>
<path d="M123.183 243.629C124.467 243.86 138.404 253.222 138.404 253.222L129.029 266.901C129.029 266.901 105.45 257.504 97.2873 252.547C95.6476 251.553 94.6317 250.735 94.5426 250.202C93.9723 247.022 92.796 242.102 96.8239 236.577C99.2478 233.255 106.216 225.616 111.403 220.073C114.842 216.378 117.48 213.607 117.48 213.607C117.48 213.607 126.231 209.521 129.029 207.495C129.029 207.495 141.701 225.953 138.404 230.572C135.107 235.173 123.183 243.629 123.183 243.629Z" fill="#FFBC9A"/>
<g style="mix-blend-mode:multiply">
<path d="M123.183 243.629C124.466 243.86 138.404 253.222 138.404 253.222L129.029 266.901C129.029 266.901 105.45 257.504 97.2871 252.547C102.456 245.335 109.014 237.5 111.1 229.204C111.866 226.149 111.705 223.111 111.402 220.073C114.842 216.378 117.48 213.607 117.48 213.607C117.48 213.607 126.231 209.521 129.029 207.495C129.029 207.495 141.701 225.953 138.404 230.572C135.106 235.173 123.183 243.629 123.183 243.629Z" fill="#FFDECF"/>
</g>
<path d="M166.153 221.903L130.954 240.734C130.954 240.734 124.859 239.224 119.387 234.125C116.215 231.176 114.29 225.367 113.22 220.997C112.454 217.799 112.133 215.383 112.133 215.383C112.133 215.383 130.936 200.176 142.378 190.21C146.085 186.995 149.026 184.33 150.309 182.891L166.153 221.903Z" fill="white"/>
<path d="M166.153 221.903L130.954 240.734C130.954 240.734 124.859 239.224 119.387 234.125C116.215 231.176 114.29 225.367 113.221 220.997C117.07 224.781 121.259 228.192 125.75 231.176C125.465 226.149 125.162 221.139 124.877 216.111C126.819 218.243 128.744 220.375 130.687 222.507C126.944 218.385 137.602 198.897 139.937 195.202C140.756 193.923 141.558 192.04 142.378 190.21C146.085 186.995 149.026 184.33 150.309 182.891L166.153 221.903Z" fill="#D4D8DF"/>
<path d="M237.443 199.11C237.443 208.312 227.053 247.289 227.053 247.289C227.053 247.289 227.017 247.466 226.964 247.786C226.821 248.603 226.483 250.327 225.966 252.565C224.718 257.948 222.437 266.226 219.318 271.112C214.399 278.804 211.601 291.417 208.09 299.82C204.561 308.223 200.355 332.845 200.355 332.845C200.355 332.845 168.043 331.335 141.826 332.721C115.609 334.124 104.809 322.932 104.809 322.932C104.809 322.932 110.013 306.055 114.7 294.721C114.896 294.277 115.074 293.851 115.253 293.425C117.944 287.118 126.231 258.392 130.954 238.957C135.659 219.504 137.228 201.278 145.07 188.753C152.929 176.229 167.847 177.028 178.825 173.617C178.825 173.617 198.947 173.067 213.704 179.675C223.916 184.259 231.366 191.827 234.984 196.037C236.588 197.902 237.443 199.11 237.443 199.11Z" fill="white"/>
<path d="M424.294 233.254C435.041 233.006 442.847 222.613 446.626 214.548C450.404 206.482 449.638 195.415 442.812 188.558C435.986 181.7 424.65 180.599 416.523 184.312C408.396 188.007 398.148 195.948 397.828 206.66C397.721 210.018 399.539 214.086 401.267 217.195C402.568 219.504 402.248 222.364 400.483 224.354C398.131 227.001 395.386 229.879 392.873 231.975C390.592 233.858 385.904 235.404 383.677 236.79C381.556 238.104 383.195 241.284 384.942 243.061L387.687 245.814C389.451 247.573 392.392 247.271 393.711 245.157C395.101 242.954 396.937 240.254 398.861 238.015C401.267 235.208 404.012 232.597 406.472 230.447C408.468 228.689 411.355 228.422 413.672 229.737C416.791 231.513 420.89 233.379 424.276 233.29L424.294 233.254Z" fill="#E2C8A8"/>
<path d="M426.914 232.97C436.324 231.3 443.168 221.938 446.626 214.53C450.404 206.465 449.638 195.397 442.812 188.54C435.986 181.683 424.65 180.581 416.523 184.294C409.074 187.687 399.842 194.633 398.113 204.031L422.619 228.653C422.619 228.653 422.868 231.176 421.959 233.041C421.959 233.041 423.795 233.539 426.95 232.988L426.914 232.97Z" fill="#184E77"/>
<path d="M423.634 230.021C434.381 229.772 442.188 219.38 445.966 211.315C449.744 203.249 448.978 192.182 442.152 185.324C435.326 178.467 423.991 177.366 415.864 181.079C407.737 184.774 397.489 192.715 397.168 203.427C397.061 206.785 398.879 210.853 400.608 213.962C401.909 216.271 401.588 219.131 399.824 221.121C397.471 223.768 394.726 226.646 392.213 228.742C389.932 230.625 387.205 232.437 384.978 233.805C382.857 235.12 382.536 238.051 384.282 239.81L387.027 242.563C388.792 244.322 391.732 244.02 393.051 241.906C394.441 239.703 396.277 237.003 398.202 234.764C400.608 231.958 403.353 229.346 405.812 227.197C407.808 225.438 410.695 225.171 413.012 226.486C416.131 228.262 420.23 230.128 423.617 230.039L423.634 230.021Z" fill="#FFE1BD"/>
<path d="M397.186 204.653L422.387 229.968C422.815 230.003 423.225 230.039 423.617 230.021C434.364 229.772 442.17 219.38 445.948 211.315C449.727 203.249 448.96 192.182 442.134 185.324C435.308 178.467 423.973 177.366 415.846 181.079C407.719 184.774 397.471 192.715 397.15 203.427C397.15 203.836 397.15 204.244 397.204 204.653H397.186Z" fill="#7FABCC"/>
<path d="M408.824 235.475C407.505 235.848 406.507 235.049 406.365 237.518C406.311 238.477 403.388 238.726 402.675 239.419C401.998 240.094 402.604 240.627 401.927 241.338C400.768 242.563 398.273 243.86 396.901 243.86C392.196 243.86 389.95 245.548 386.813 245.548C383.677 245.548 366.817 241.267 360.543 240.751C354.27 240.218 298.325 258.463 289.948 260.026C281.59 261.59 276.884 262.638 270.076 260.026C263.286 257.415 242.362 245.957 242.362 245.957L264.337 221.938C264.337 221.938 268.543 223.413 273.926 225.243C282.962 228.334 295.313 232.473 296.81 232.473C299.198 232.473 318.945 230.181 346.16 227.623C356.373 226.664 375.71 223.395 383.552 222.169C391.251 220.961 397.204 224.283 404.832 226.93C404.974 226.984 405.135 227.037 405.277 227.09C413.119 229.79 412.478 234.427 408.824 235.475Z" fill="#FFBC9A"/>
<g style="mix-blend-mode:multiply">
<path d="M408.824 235.475C407.505 235.848 406.507 235.049 406.365 237.518C406.311 238.477 403.388 238.726 402.675 239.419C401.998 240.094 402.604 240.627 401.927 241.338C400.768 242.563 398.273 243.86 396.901 243.86C392.196 243.86 389.95 245.548 386.813 245.548C383.677 245.548 366.817 241.267 360.543 240.751C354.27 240.218 298.325 258.463 289.948 260.026C281.59 261.59 276.884 262.638 270.076 260.026C263.286 257.415 242.362 245.956 242.362 245.956L264.337 221.938C264.337 221.938 268.543 223.413 273.926 225.243C275.102 233.29 268.918 244.216 275.245 249.811C278.756 252.92 284.12 252.174 288.719 251.268C305.525 247.893 322.367 244.535 338.942 240.112C345.786 238.282 352.666 236.275 359.741 235.759C365.605 235.351 371.486 235.973 377.35 235.688C387.063 235.209 396.616 232.135 404.832 226.93C404.974 226.983 405.135 227.037 405.277 227.09C413.119 229.79 412.478 234.427 408.824 235.475Z" fill="#FFDECF"/>
</g>
<path d="M272.465 222.169C272.465 222.169 263.482 236.381 261.896 244.286C260.31 252.192 259.793 262.726 259.793 262.726C259.793 262.726 239.493 258.143 225.966 252.565C223.595 251.588 221.439 250.575 219.639 249.563C208.09 243.043 206.878 238.921 202.404 229.506C202.173 229.009 201.923 228.493 201.674 227.96C193.743 211.634 202.725 186.355 219.639 188.984C223.774 189.624 229.263 192.448 234.984 196.037C240.58 199.554 246.372 203.782 251.327 207.424C258.652 212.789 266.512 218.172 270.255 220.677C271.645 221.618 272.465 222.169 272.465 222.169Z" fill="white"/>
<path d="M272.465 222.169C272.465 222.169 263.482 236.381 261.896 244.287C260.31 252.192 259.793 262.727 259.793 262.727C259.793 262.727 239.493 258.143 225.966 252.565C224.718 257.948 222.437 266.226 219.318 271.112C214.399 278.804 211.601 291.417 208.09 299.82C204.561 308.223 200.355 332.845 200.355 332.845C200.355 332.845 168.043 331.335 141.826 332.721C115.609 334.124 104.809 322.932 104.809 322.932C104.809 322.932 110.013 306.055 114.7 294.721L114.219 303.995C113.791 311.989 114.058 321.475 120.688 326.005C124.128 328.35 128.477 328.724 132.629 329.008C146.834 330.038 161.199 331.051 175.261 328.706C179.324 328.031 183.53 326.965 186.56 324.193C189.358 321.618 190.802 317.887 191.64 314.174C193.529 305.789 192.78 296.853 189.501 288.912L200.996 300.211C204.971 290.493 208.927 280.776 212.884 271.058C213.811 268.784 214.755 266.422 214.648 263.97C214.524 261.412 213.258 259.067 212.118 256.793C207.751 248.142 204.49 238.957 202.404 229.506C201.157 223.875 200.355 218.136 199.981 212.381C206.129 219.7 210.122 228.565 215.647 236.381C218.73 240.734 222.544 244.837 226.964 247.786C230.475 250.113 234.378 251.73 238.602 252.103C235.554 243.079 233.772 233.61 233.326 224.088C235.465 230.981 239.422 237.305 244.626 242.315C251.202 248.639 255.016 250.789 259.543 241.942C263.482 234.249 266.262 226.841 270.255 220.677C271.645 221.618 272.465 222.169 272.465 222.169Z" fill="#D4D8DF"/>
<path d="M545.433 71.3267C544.595 71.5398 543.74 71.682 542.867 71.753C542.724 71.753 542.582 71.7885 542.421 71.7885C541.851 71.5221 541.316 71.1845 540.799 70.7937L542.403 70.9714L545.433 71.3267Z" fill="#FFDECF"/>
<path d="M440.352 118.208C440.352 123.076 436.395 127.02 431.512 127.02C426.628 127.02 422.672 123.076 422.672 118.208C422.672 113.341 426.628 109.397 431.512 109.397C436.395 109.397 440.352 113.341 440.352 118.208Z" fill="white"/>
<path d="M437.803 112.026C436.128 116.663 433.009 120.766 428.66 123.183C427.626 123.751 426.575 124.231 425.488 124.621C427.074 126.096 429.177 127.02 431.512 127.02C436.395 127.02 440.352 123.076 440.352 118.208C440.352 115.792 439.372 113.607 437.803 112.026Z" fill="#D4D8DF"/>
</svg>
