<svg width="126" height="130" viewBox="0 0 126 130" fill="none" xmlns="http://www.w3.org/2000/svg">
<path fill-rule="evenodd" clip-rule="evenodd" d="M16.3644 15.3979C15.3845 5.50878 22.4915 -3.29074 32.2377 -4.25649C41.9839 -5.22225 50.6796 2.01136 51.6595 11.9005C52.3044 18.4088 49.4467 24.4452 44.6391 28.0872L60.6409 48.7505C64.2945 53.468 71.1811 53.9 75.3545 49.6745L95.3582 29.4201C91.2043 26.5149 88.2867 21.8466 87.7432 16.3612C86.7632 6.47203 93.8702 -2.32748 103.616 -3.29324C113.363 -4.259 122.058 2.97461 123.038 12.8638C123.84 20.9506 119.233 28.3087 112.198 31.2503L107.983 96.9753C106.795 115.499 92.5758 130.399 74.364 132.203L17.7116 137.817C-0.500661 139.622 -17.3672 127.802 -22.1674 109.872L-39.1991 46.2524C-46.675 44.7488 -52.6358 38.4377 -53.4371 30.3509C-54.417 20.4618 -47.3104 11.6622 -37.5639 10.6964C-27.8174 9.73066 -19.122 16.9644 -18.1421 26.8535C-17.5985 32.3388 -19.5431 37.489 -23.0461 41.1529L0.543175 57.0875C5.46536 60.4119 12.1333 58.6365 14.7895 53.2942L26.425 29.892C20.9962 27.2643 17.0094 21.9062 16.3644 15.3979ZM36.2964 36.7036L25.3502 58.7194C19.5063 70.4732 4.83722 74.3785 -5.99097 67.0649L-24.7818 54.3717L-10.7569 106.76C-7.47259 119.028 4.0678 127.115 16.5287 125.88L73.1812 120.266C85.6415 119.031 95.3707 108.837 96.1839 96.1629L99.6544 42.041L83.7201 58.1751C74.538 67.472 59.3878 66.5211 51.3505 56.1431L36.2964 36.7036ZM33.4205 7.68065C30.1719 8.00257 27.8028 10.9358 28.1295 14.2321C28.4561 17.5284 31.3547 19.9397 34.6034 19.6178C37.8521 19.2959 40.2211 16.3626 39.8945 13.0663C39.5679 9.77002 36.6692 7.35874 33.4205 7.68065ZM-36.381 22.6336C-39.6299 22.9555 -41.9987 25.8887 -41.6721 29.1851C-41.3455 32.4814 -38.447 34.8927 -35.1982 34.5707C-31.9493 34.2488 -29.5804 31.3156 -29.9071 28.0193C-30.2337 24.7229 -33.1322 22.3117 -36.381 22.6336ZM104.799 8.6439C101.551 8.96582 99.1816 11.8991 99.5082 15.1954C99.8348 18.4917 102.733 20.903 105.982 20.5811C109.231 20.2591 111.6 17.3259 111.273 14.0296C110.947 10.7333 108.048 8.32199 104.799 8.6439Z" fill="#7FABCC"/>
<path d="M-22.1674 109.872C-17.3672 127.802 -0.500663 139.622 17.7116 137.817L74.364 132.203C92.5758 130.399 106.795 115.499 107.983 96.9753L112.198 31.2503C119.233 28.3087 123.84 20.9506 123.038 12.8638C122.058 2.97461 113.363 -4.259 103.616 -3.29324C93.8702 -2.32748 86.7632 6.47203 87.7432 16.3612C88.2867 21.8466 91.2043 26.5149 95.3582 29.4201L75.3545 49.6745C71.1811 53.9 64.2945 53.468 60.6409 48.7505L44.6391 28.0872C49.4467 24.4452 52.3044 18.4088 51.6595 11.9005C50.6796 2.01136 41.9839 -5.22225 32.2377 -4.25649C22.4915 -3.29074 15.3845 5.50878 16.3644 15.3979C17.0094 21.9062 20.9962 27.2643 26.425 29.892L14.7895 53.2941C12.1333 58.6365 5.46536 60.4119 0.543177 57.0875L-23.0461 41.1529C-19.5431 37.489 -17.5985 32.3388 -18.1421 26.8535C-19.122 16.9644 -27.8174 9.73066 -37.5639 10.6964C-47.3104 11.6622 -54.417 20.4618 -53.4371 30.3509C-52.6358 38.4377 -46.675 44.7488 -39.1991 46.2524L-22.1674 109.872ZM-22.1674 109.872L-16.4622 108.316M25.3502 58.7194L36.2964 36.7036L51.3505 56.1431C59.3878 66.5211 74.538 67.4719 83.7201 58.1751L99.6544 42.041L96.1839 96.1629C95.3707 108.837 85.6415 119.031 73.1812 120.266L16.5287 125.88C4.0678 127.115 -7.47259 119.028 -10.7569 106.76L-24.7818 54.3717L-5.99096 67.0649C4.83722 74.3785 19.5063 70.4732 25.3502 58.7194ZM28.1295 14.2321C27.8028 10.9358 30.1719 8.00257 33.4205 7.68065C36.6692 7.35874 39.5679 9.77002 39.8945 13.0663C40.2211 16.3626 37.8521 19.2959 34.6034 19.6178C31.3547 19.9397 28.4561 17.5284 28.1295 14.2321ZM-41.6721 29.1851C-41.9987 25.8887 -39.6299 22.9555 -36.381 22.6336C-33.1322 22.3117 -30.2337 24.7229 -29.9071 28.0193C-29.5804 31.3156 -31.9493 34.2488 -35.1982 34.5707C-38.447 34.8927 -41.3455 32.4814 -41.6721 29.1851ZM99.5082 15.1954C99.1816 11.8991 101.551 8.96582 104.799 8.6439C108.048 8.32199 110.947 10.7333 111.273 14.0296C111.6 17.3259 109.231 20.2591 105.982 20.5811C102.733 20.903 99.8348 18.4917 99.5082 15.1954Z" stroke="#184E77" stroke-width="5" stroke-linecap="round" stroke-linejoin="round"/>
</svg>
