<svg width="18" height="14" viewBox="0 0 18 14" fill="none" xmlns="http://www.w3.org/2000/svg">
<path d="M5.62505 7.74986C7.62712 7.74986 9.25011 6.12687 9.25011 4.12481C9.25011 2.12275 7.62712 0.499756 5.62505 0.499756C3.62299 0.499756 2 2.12275 2 4.12481C2 6.12687 3.62299 7.74986 5.62505 7.74986Z" fill="#103959"/>
<path d="M16.7889 5.30848L16.7684 5.28655C16.5122 5.01257 16.0778 5.01181 15.8206 5.28489L13.2541 8.00947C13.1161 8.15596 12.8833 8.15619 12.745 8.00996L12.1817 7.41425C11.9256 7.14335 11.4945 7.14299 11.2379 7.41347L11.2169 7.43557C10.9794 7.68595 10.9789 8.07831 11.2159 8.32923L12.527 9.71757C12.7837 9.98942 13.2163 9.98915 13.4727 9.71697L16.7874 6.1982C17.0226 5.9485 17.0233 5.559 16.7889 5.30848Z" fill="#103959" stroke="#103959" stroke-width="0.3"/>
<path d="M10.8127 12.9186C11.1481 12.8425 11.3491 12.4931 11.2005 12.1824C10.7997 11.3445 10.141 10.6081 9.28724 10.0531C8.23666 9.3702 6.94936 9 5.6251 9C4.30084 9 3.01357 9.3702 1.96296 10.0531C1.10918 10.6081 0.450471 11.3444 0.0496682 12.1824C-0.0989485 12.4931 0.102161 12.8425 0.437462 12.9186C3.85265 13.6939 7.39751 13.6939 10.8127 12.9186Z" fill="#103959"/>
</svg>
