<svg width="25" height="25" viewBox="0 0 25 25" fill="none" xmlns="http://www.w3.org/2000/svg">
<path fill-rule="evenodd" clip-rule="evenodd" d="M19.4774 23.8349C18.5497 23.4985 17.7588 23.063 17.1358 22.6547C15.7694 23.1839 14.2764 23.4751 12.7144 23.4751C6.20536 23.4751 0.928711 18.4278 0.928711 12.2018C0.928711 5.9757 6.20536 0.928467 12.7144 0.928467C19.2235 0.928467 24.5001 5.9757 24.5001 12.2018C24.5001 14.5372 23.7566 16.7094 22.4836 18.5098C22.4028 19.9985 23.2202 21.3436 24.0686 22.5339C24.8116 23.5763 24.6252 24.4163 23.2397 24.4914C22.6187 24.5251 21.2755 24.487 19.4774 23.8349ZM3.07157 12.2018C3.07157 7.10772 7.38882 2.97816 12.7144 2.97816C18.0401 2.97816 22.3573 7.10772 22.3573 12.2018C22.3573 14.2005 21.6938 16.0481 20.5658 17.5578C20.0668 18.226 20.3235 19.478 20.4947 20.1967C20.6609 20.8943 21.0214 21.6356 21.3776 22.2579C21.0366 22.1793 20.6549 22.0698 20.2371 21.9184C19.2757 21.5696 18.4813 21.0794 17.9209 20.668C17.6029 20.4346 17.1753 20.3905 16.8126 20.5537C15.5702 21.1125 14.182 21.4254 12.7144 21.4254C7.38882 21.4254 3.07157 17.2959 3.07157 12.2018ZM7.35728 13.7391C8.24488 13.7391 8.96442 13.0508 8.96442 12.2018C8.96442 11.3528 8.24488 10.6645 7.35728 10.6645C6.46968 10.6645 5.75014 11.3528 5.75014 12.2018C5.75014 13.0508 6.46968 13.7391 7.35728 13.7391ZM14.3216 12.2018C14.3216 13.0508 13.602 13.7391 12.7144 13.7391C11.8269 13.7391 11.1073 13.0508 11.1073 12.2018C11.1073 11.3528 11.8269 10.6645 12.7144 10.6645C13.602 10.6645 14.3216 11.3528 14.3216 12.2018ZM18.0716 13.7391C18.9591 13.7391 19.6787 13.0508 19.6787 12.2018C19.6787 11.3528 18.9591 10.6645 18.0716 10.6645C17.184 10.6645 16.4644 11.3528 16.4644 12.2018C16.4644 13.0508 17.184 13.7391 18.0716 13.7391Z" fill="white"/>
</svg>
