<svg width="25" height="25" viewBox="0 0 25 25" fill="none" xmlns="http://www.w3.org/2000/svg">
<path fill-rule="evenodd" clip-rule="evenodd" d="M19.4774 23.8352C18.5497 23.4987 17.7588 23.0633 17.1358 22.655C15.7694 23.1842 14.2764 23.4753 12.7144 23.4753C6.20536 23.4753 0.928711 18.4281 0.928711 12.202C0.928711 5.97595 6.20536 0.928711 12.7144 0.928711C19.2235 0.928711 24.5001 5.97595 24.5001 12.202C24.5001 14.5374 23.7566 16.7096 22.4836 18.5101C22.4028 19.9988 23.2202 21.3439 24.0686 22.5341C24.8116 23.5765 24.6252 24.4166 23.2397 24.4917C22.6187 24.5253 21.2755 24.4873 19.4774 23.8352ZM3.07157 12.202C3.07157 7.10796 7.38882 2.9784 12.7144 2.9784C18.0401 2.9784 22.3573 7.10796 22.3573 12.202C22.3573 14.2008 21.6938 16.0484 20.5658 17.5581C20.0668 18.2263 20.3235 19.4782 20.4947 20.197C20.6609 20.8946 21.0214 21.6358 21.3776 22.2581C21.0366 22.1795 20.6549 22.0701 20.2371 21.9186C19.2757 21.5698 18.4813 21.0797 17.9209 20.6683C17.6029 20.4348 17.1753 20.3908 16.8126 20.5539C15.5702 21.1128 14.182 21.4256 12.7144 21.4256C7.38882 21.4256 3.07157 17.2961 3.07157 12.202ZM7.35728 13.7393C8.24488 13.7393 8.96442 13.051 8.96442 12.202C8.96442 11.353 8.24488 10.6648 7.35728 10.6648C6.46968 10.6648 5.75014 11.353 5.75014 12.202C5.75014 13.051 6.46968 13.7393 7.35728 13.7393ZM14.3216 12.202C14.3216 13.051 13.602 13.7393 12.7144 13.7393C11.8269 13.7393 11.1073 13.051 11.1073 12.202C11.1073 11.353 11.8269 10.6648 12.7144 10.6648C13.602 10.6648 14.3216 11.353 14.3216 12.202ZM18.0716 13.7393C18.9591 13.7393 19.6787 13.051 19.6787 12.202C19.6787 11.353 18.9591 10.6648 18.0716 10.6648C17.184 10.6648 16.4644 11.353 16.4644 12.202C16.4644 13.051 17.184 13.7393 18.0716 13.7393Z" fill="white"/>
</svg>
