<svg width="27" height="27" viewBox="0 0 27 27" fill="none" xmlns="http://www.w3.org/2000/svg">
<path fill-rule="evenodd" clip-rule="evenodd" d="M9.965 13.14C10.4907 13.14 10.9169 13.5662 10.9169 14.0919V18.6296C10.9169 19.1553 10.4907 19.5815 9.965 19.5815C9.43928 19.5815 9.01309 19.1553 9.01309 18.6296V14.0919C9.01309 13.5662 9.43928 13.14 9.965 13.14Z" fill="white"/>
<path fill-rule="evenodd" clip-rule="evenodd" d="M6.69901 16.3601C6.69901 15.8344 7.12519 15.4082 7.65091 15.4082H12.2806C12.8063 15.4082 13.2325 15.8344 13.2325 16.3601C13.2325 16.8858 12.8063 17.312 12.2806 17.312H7.65091C7.12519 17.312 6.69901 16.8858 6.69901 16.3601Z" fill="white"/>
<path fill-rule="evenodd" clip-rule="evenodd" d="M16.7813 14.2299C16.7813 13.7041 17.2075 13.278 17.7332 13.278H17.8629C18.3887 13.278 18.8148 13.7041 18.8148 14.2299C18.8148 14.7556 18.3887 15.1818 17.8629 15.1818H17.7332C17.2075 15.1818 16.7813 14.7556 16.7813 14.2299Z" fill="white"/>
<path fill-rule="evenodd" clip-rule="evenodd" d="M18.978 18.5605C18.978 18.0348 19.4041 17.6086 19.9299 17.6086H20.0596C20.5853 17.6086 21.0115 18.0348 21.0115 18.5605C21.0115 19.0863 20.5853 19.5125 20.0596 19.5125H19.9299C19.4041 19.5125 18.978 19.0863 18.978 18.5605Z" fill="white"/>
<path fill-rule="evenodd" clip-rule="evenodd" d="M9.01594 0.642865C9.54164 0.637947 9.97179 1.06013 9.97671 1.58583C9.98026 1.96495 10.2914 2.27129 10.6735 2.26771C10.6764 2.26768 10.6794 2.26766 10.6824 2.26766H11.9585C13.8803 2.25484 15.451 3.79614 15.4776 5.71694C15.4777 5.7189 15.4777 5.72086 15.4777 5.72282C15.4777 5.72526 15.4777 5.7277 15.4777 5.73014V7.00844C15.4777 7.53416 15.0515 7.96035 14.5258 7.96035C14.0001 7.96035 13.5739 7.53416 13.5739 7.00844V5.73749C13.5586 4.86341 12.8426 4.16465 11.9693 4.17145C11.9678 4.17146 11.9663 4.17147 11.9648 4.17147C11.9638 4.17148 11.9628 4.17148 11.9619 4.17148H10.6863C9.25806 4.18218 8.08637 3.03551 8.07298 1.60363C8.06806 1.07793 8.49024 0.647783 9.01594 0.642865Z" fill="white"/>
<path fill-rule="evenodd" clip-rule="evenodd" d="M3.73314 8.31518C5.89925 6.63317 9.22018 6.05652 13.7852 6.05652C18.3497 6.05652 21.6703 6.63318 23.8362 8.3152C26.0769 10.0553 26.8549 12.7814 26.8549 16.4181C26.8549 20.0555 26.0769 22.7817 23.8362 24.5216C21.6702 26.2035 18.3496 26.7798 13.7852 26.7798C9.22026 26.7798 5.8993 26.2035 3.73318 24.5216C1.49223 22.7817 0.714233 20.0555 0.714233 16.4181C0.714233 12.7814 1.49225 10.0552 3.73314 8.31518ZM4.90078 9.81888C3.35461 11.0195 2.61805 12.9982 2.61805 16.4181C2.61805 19.8387 3.35463 21.8174 4.90074 23.0179C6.52168 24.2764 9.26027 24.876 13.7852 24.876C18.3095 24.876 21.0478 24.2764 22.6686 23.0179C24.2145 21.8175 24.9511 19.8387 24.9511 16.4181C24.9511 12.9982 24.2145 11.0195 22.6685 9.81885C21.0477 8.56019 18.3095 7.96033 13.7852 7.96033C9.26034 7.96033 6.52173 8.5602 4.90078 9.81888Z" fill="white"/>
</svg>
