<svg width="49" height="60" viewBox="0 0 49 60" fill="none" xmlns="http://www.w3.org/2000/svg">
<path d="M12.4081 37.0343C10.1203 37.0343 9.81648 35.9567 9.81648 35.9567L0.894043 53.6331L8.04846 52.8249L12.0054 58.8216C12.0054 58.8216 20.2415 41.4903 20.2415 41.6065C15.9771 41.5032 17.6701 37.1505 12.4081 37.0343ZM32.5206 38.9311C33.6316 37.0491 35.2733 36.0951 37.4458 36.0656C39.6183 36.0361 40.7165 34.9272 40.7458 32.737C40.775 30.5487 41.7213 28.8936 43.5881 27.7754C45.455 26.6573 45.8576 25.1406 44.7961 23.2309C43.7345 21.3212 43.7345 19.4096 44.7961 17.4999C45.8576 15.5902 45.4531 14.0753 43.5881 12.9554C41.7231 11.8354 40.775 10.1821 40.7458 7.99195C40.7165 5.80363 39.6165 4.6947 37.4458 4.66518C35.2715 4.63566 33.6316 3.68173 32.5206 1.79969C31.4133 -0.0823389 29.9071 -0.488268 28.0128 0.581908C26.1185 1.65208 24.2242 1.65208 22.3298 0.581908C20.4355 -0.488268 18.9329 -0.0804939 17.822 1.79969C16.711 3.68173 15.0711 4.63566 12.8986 4.66518C10.7261 4.6947 9.62796 5.80547 9.59868 7.9938C9.56939 10.184 8.62316 11.8372 6.75631 12.9572C4.88946 14.0772 4.48681 15.592 5.54835 17.5018C6.60989 19.4115 6.60989 21.323 5.54835 23.2327C4.48681 25.1424 4.89129 26.6573 6.75631 27.7773C8.62316 28.8973 9.56939 30.5524 9.59868 32.7388C9.62796 34.929 10.7279 36.0379 12.8986 36.0675C15.0693 36.097 16.711 37.0509 17.822 38.9329C18.9311 40.815 20.4355 41.2191 22.3298 40.1507C24.2242 39.0824 26.1185 39.0824 28.0128 40.1507C29.9071 41.2191 31.4115 40.8131 32.5206 38.9311ZM39.8013 36.6487C33.282 37.3406 34.6071 38.9662 33.121 40.2338C31.4042 42.0789 29.2646 41.7228 29.2646 41.7228L39.331 59.1685L41.8018 52.7105L48.8409 53.6331L39.8013 36.6487Z" fill="url(#paint0_linear_195_1628)"/>
<path d="M24.7022 30.3507C23.4689 30.3507 22.2605 30.1757 21.0772 29.8257C19.9105 29.459 18.9272 28.959 18.1272 28.3257L19.5272 25.8007C20.1605 26.3174 20.9272 26.734 21.8272 27.0507C22.7272 27.3674 23.6689 27.5257 24.6522 27.5257C25.8189 27.5257 26.7272 27.2924 27.3772 26.8257C28.0272 26.3424 28.3522 25.6924 28.3522 24.8757C28.3522 24.0757 28.0522 23.4424 27.4522 22.9757C26.8522 22.509 25.8855 22.2757 24.5522 22.2757H22.9522V20.0507L27.9522 14.1007L28.3772 15.3257H18.9772V12.6007H30.9022V14.7757L25.9022 20.7257L24.2022 19.7257H25.1772C27.3272 19.7257 28.9355 20.209 30.0022 21.1757C31.0855 22.1257 31.6272 23.3507 31.6272 24.8507C31.6272 25.834 31.3772 26.7424 30.8772 27.5757C30.3772 28.409 29.6105 29.084 28.5772 29.6007C27.5605 30.1007 26.2689 30.3507 24.7022 30.3507Z" fill="#103959"/>
<defs>
<linearGradient id="paint0_linear_195_1628" x1="45.7805" y1="25.5037" x2="3.95448" y2="25.5037" gradientUnits="userSpaceOnUse">
<stop stop-color="#9D6528"/>
<stop offset="0.510417" stop-color="#FDD474"/>
<stop offset="1" stop-color="#9D6528"/>
</linearGradient>
</defs>
</svg>
