<svg width="15" height="14" viewBox="0 0 15 14" fill="none" xmlns="http://www.w3.org/2000/svg">
<path d="M5.62505 7.74999C7.62712 7.74999 9.25011 6.12699 9.25011 4.12493C9.25011 2.12287 7.62712 0.499878 5.62505 0.499878C3.62299 0.499878 2 2.12287 2 4.12493C2 6.12699 3.62299 7.74999 5.62505 7.74999Z" fill="#103959"/>
<path fill-rule="evenodd" clip-rule="evenodd" d="M12.125 4.74988C12.4702 4.74988 12.75 5.07168 12.75 5.46864V9.7812C12.75 10.1782 12.4702 10.5 12.125 10.5C11.7798 10.5 11.5 10.1782 11.5 9.7812V5.46864C11.5 5.07168 11.7798 4.74988 12.125 4.74988Z" fill="#103959"/>
<path fill-rule="evenodd" clip-rule="evenodd" d="M9.25 7.75001C9.25 7.33579 9.5718 7 9.96876 7H14.2813C14.6783 7 15.0001 7.33579 15.0001 7.75001C15.0001 8.16423 14.6783 8.50002 14.2813 8.50002H9.96876C9.5718 8.50002 9.25 8.16423 9.25 7.75001Z" fill="#103959"/>
<path d="M10.8127 12.9187C11.1481 12.8427 11.3491 12.4933 11.2005 12.1825C10.7997 11.3446 10.141 10.6082 9.28724 10.0532C8.23666 9.37032 6.94936 9.00012 5.6251 9.00012C4.30084 9.00012 3.01357 9.37032 1.96296 10.0532C1.10918 10.6082 0.450471 11.3445 0.0496682 12.1825C-0.0989485 12.4933 0.102161 12.8427 0.437462 12.9187C3.85265 13.694 7.39751 13.694 10.8127 12.9187Z" fill="#103959"/>
</svg>
