<svg width="123" height="130" viewBox="0 0 123 130" fill="none" xmlns="http://www.w3.org/2000/svg">
<path id="Vector" d="M90.2361 3.59564C100.269 2.78067 109.096 10.2821 109.911 20.3151C110.726 30.3481 103.225 39.176 93.1926 39.991L87.1209 40.4842L84.1644 4.08887L90.2361 3.59564ZM92.6999 33.9251C99.4024 33.3806 104.39 27.5107 103.846 20.8078C103.301 14.105 97.4314 9.11707 90.7288 9.66153L92.6999 33.9251ZM88.9454 138.031L90.4236 156.228C90.6956 159.577 88.199 162.515 84.8507 162.787L36.3256 166.729C32.9774 167.001 30.0392 164.504 29.7672 161.156L28.289 142.958C28.017 139.61 30.5136 136.671 33.8618 136.399L82.387 132.458C85.7352 132.186 88.6734 134.682 88.9454 138.031ZM35.8329 160.663L84.358 156.721L82.8797 138.523L34.3546 142.465L35.8329 160.663ZM49.1023 98.5258C29.0189 100.157 11.4111 85.2116 9.75534 65.1294L9.25308 59.0215C-8.48285 60.4623 -23.8946 46.3945 -23.6353 28.1655C-23.4121 12.272 -10.2077 -0.4568 5.62967 -1.74332L87.9465 -8.4302C103.784 -9.71672 118.876 0.713516 121.661 16.3626C124.853 34.3112 111.914 50.682 94.1781 52.1228L94.6678 58.2255C96.275 78.3117 81.3103 95.9034 61.227 97.5348L58.1942 97.7812L58.2002 97.7807L59.1852 109.906L68.2837 109.167C71.6319 108.895 74.5701 111.392 74.8421 114.74L75.3358 120.818L81.4015 120.326C91.4522 119.509 100.26 126.994 101.077 137.045L103.54 167.375L109.606 166.882C112.954 166.61 115.892 169.107 116.164 172.455L116.657 178.521C116.929 181.869 114.433 184.808 111.084 185.08L14.0341 192.963C10.6858 193.235 7.74766 190.739 7.47567 187.39L6.98291 181.324C6.71091 177.976 9.20757 175.038 12.5558 174.766L18.6214 174.273L16.1577 143.943C15.3412 133.892 22.8256 125.084 32.8763 124.268L38.942 123.775L38.4487 117.703C38.1767 114.355 40.6734 111.416 44.0216 111.144L53.1201 110.405L52.1346 98.2734L49.1023 98.5258ZM13.0486 180.832L13.5413 186.897L110.592 179.014L110.099 172.948L13.0486 180.832ZM33.3691 130.333C26.6666 130.878 21.6788 136.748 22.2233 143.451L24.6871 173.78L97.4748 167.867L95.011 137.538C94.4665 130.835 88.5968 125.847 81.8942 126.392L33.3691 130.333ZM44.5144 117.21L45.0071 123.276L69.2697 121.305L68.7769 115.239L44.5144 117.21ZM60.7347 91.475C77.4577 90.1165 89.9577 75.4055 88.5992 58.6819L87.6136 46.5501L93.9947 46.0317C107.222 44.7863 117.056 33.1006 115.977 19.8224C114.89 6.44103 103.124 -3.55721 89.7433 -2.47024L4.81831 4.4285C-8.56249 5.51547 -18.5603 17.2816 -17.4733 30.663C-16.3946 43.9412 -4.80412 53.8865 8.45098 52.9807L14.832 52.4624L15.8175 64.5942C17.1761 81.3178 31.8865 93.8184 48.6095 92.46L60.7347 91.475ZM-11.4076 30.1703C-12.2226 20.1373 -4.72151 11.3094 5.31106 10.4944L11.3828 10.0012L14.3393 46.3965L8.26758 46.8897C-1.76499 47.7047 -10.5926 40.2032 -11.4076 30.1703ZM5.80381 16.5603C-0.898719 17.1048 -5.88646 22.9747 -5.34196 29.6775C-4.79747 36.3803 1.07229 41.3683 7.77482 40.8238L5.80381 16.5603Z" fill="#7FABCC"/>
</svg>
