<svg width="16" height="16" viewBox="0 0 16 16" fill="none" xmlns="http://www.w3.org/2000/svg">
<g id="Dribbble-Light-Preview">
<g id="icons">
<path id="arrow_up-[#362]" fill-rule="evenodd" clip-rule="evenodd" d="M15.2482 6.57571L8.89586 0.233606C8.58388 -0.0778691 8.07739 -0.0778691 7.76461 0.233606C7.45262 0.545879 7.45262 1.05143 7.76461 1.3637L12.9174 6.50703C13.1693 6.75861 12.9909 7.18828 12.6341 7.18828L0.800146 7.18828C0.358561 7.18828 0.000144629 7.55247 0.000144609 7.99412L0.000144609 7.99652C0.00014459 8.43817 0.358561 8.78559 0.800146 8.78559L12.6341 8.78559C12.9909 8.78559 13.1693 9.21606 12.9174 9.46764L7.74 14.6365C7.42721 14.948 7.42721 15.4543 7.74 15.7658C8.05198 16.0781 8.55888 16.0781 8.87086 15.7658L15.5314 9.11703C16.1562 8.49328 16.1562 7.48219 15.5314 6.85844L15.2482 6.57571Z" fill="#103959"/>
</g>
</g>
</svg>
