<svg width="49" height="60" viewBox="0 0 49 60" fill="none" xmlns="http://www.w3.org/2000/svg">
<path d="M12.3021 37.0343C10.0143 37.0343 9.71052 35.9567 9.71052 35.9567L0.788086 53.6331L7.94251 52.8249L11.8995 58.8216C11.8995 58.8216 20.1356 41.4903 20.1356 41.6065C15.8711 41.5032 17.5641 37.1505 12.3021 37.0343ZM32.4147 38.9311C33.5256 37.0491 35.1674 36.0951 37.3399 36.0656C39.5124 36.0361 40.6105 34.9272 40.6398 32.737C40.6691 30.5487 41.6153 28.8936 43.4822 27.7754C45.349 26.6573 45.7517 25.1406 44.6901 23.2309C43.6286 21.3212 43.6286 19.4096 44.6901 17.4999C45.7517 15.5902 45.3472 14.0753 43.4822 12.9554C41.6171 11.8354 40.6691 10.1821 40.6398 7.99195C40.6105 5.80363 39.5105 4.6947 37.3399 4.66518C35.1655 4.63566 33.5256 3.68173 32.4147 1.79969C31.3074 -0.082339 29.8011 -0.488268 27.9068 0.581908C26.0125 1.65208 24.1182 1.65208 22.2239 0.581908C20.3296 -0.488268 18.827 -0.0804939 17.716 1.79969C16.605 3.68173 14.9651 4.63566 12.7927 4.66518C10.6202 4.6947 9.522 5.80547 9.49272 7.9938C9.46344 10.184 8.5172 11.8372 6.65035 12.9572C4.78351 14.0772 4.38085 15.592 5.44239 17.5018C6.50393 19.4115 6.50393 21.323 5.44239 23.2327C4.38085 25.1424 4.78534 26.6573 6.65035 27.7773C8.5172 28.8973 9.46344 30.5524 9.49272 32.7388C9.522 34.929 10.622 36.0379 12.7927 36.0675C14.9633 36.097 16.605 37.0509 17.716 38.9329C18.8251 40.815 20.3296 41.2191 22.2239 40.1507C24.1182 39.0824 26.0125 39.0824 27.9068 40.1507C29.8011 41.2191 31.3056 40.8131 32.4147 38.9311ZM39.6954 36.6487C33.1761 37.3406 34.5012 38.9662 33.015 40.2338C31.2982 42.0789 29.1587 41.7228 29.1587 41.7228L39.225 59.1685L41.6958 52.7105L48.735 53.6331L39.6954 36.6487Z" fill="#7FABCC"/>
<path d="M24.8718 30.3507C23.6385 30.3507 22.4302 30.1757 21.2468 29.8257C20.0802 29.459 19.0968 28.959 18.2968 28.3257L19.6718 25.8007C20.3052 26.3174 21.0718 26.734 21.9718 27.0507C22.8885 27.3674 23.8385 27.5257 24.8218 27.5257C25.9718 27.5257 26.8718 27.284 27.5218 26.8007C28.1885 26.3174 28.5218 25.6674 28.5218 24.8507C28.5218 24.3007 28.3802 23.8174 28.0968 23.4007C27.8302 22.984 27.3468 22.6674 26.6468 22.4507C25.9635 22.234 25.0218 22.1257 23.8218 22.1257H19.5968L20.4968 12.6007H30.7718V15.3257H21.6968L23.3968 13.7757L22.7218 20.9007L21.0218 19.3757H24.5468C26.2802 19.3757 27.6718 19.609 28.7218 20.0757C29.7885 20.5257 30.5635 21.159 31.0468 21.9757C31.5468 22.7757 31.7968 23.6924 31.7968 24.7257C31.7968 25.7424 31.5468 26.6757 31.0468 27.5257C30.5468 28.3757 29.7802 29.059 28.7468 29.5757C27.7302 30.0924 26.4385 30.3507 24.8718 30.3507Z" fill="#103959"/>
</svg>
