<svg width="48" height="60" viewBox="0 0 48 60" fill="none" xmlns="http://www.w3.org/2000/svg">
<path d="M11.5141 37.0343C9.22625 37.0343 8.92243 35.9567 8.92243 35.9567L0 53.6331L7.15442 52.8249L11.1114 58.8216C11.1114 58.8216 19.3475 41.4903 19.3475 41.6065C15.083 41.5032 16.776 37.1505 11.5141 37.0343ZM31.6266 38.9311C32.7376 37.0491 34.3793 36.0951 36.5518 36.0656C38.7243 36.0361 39.8224 34.9272 39.8517 32.737C39.881 30.5487 40.8272 28.8936 42.6941 27.7754C44.5609 26.6573 44.9636 25.1406 43.902 23.2309C42.8405 21.3212 42.8405 19.4096 43.902 17.4999C44.9636 15.5902 44.5591 14.0753 42.6941 12.9554C40.8291 11.8354 39.881 10.1821 39.8517 7.99195C39.8224 5.80363 38.7224 4.6947 36.5518 4.66518C34.3774 4.63566 32.7376 3.68173 31.6266 1.79969C30.5193 -0.082339 29.013 -0.488268 27.1187 0.581908C25.2244 1.65208 23.3301 1.65208 21.4358 0.581908C19.5415 -0.488268 18.0389 -0.0804939 16.9279 1.79969C15.817 3.68173 14.1771 4.63566 12.0046 4.66518C9.83207 4.6947 8.73392 5.80547 8.70463 7.9938C8.67535 10.184 7.72912 11.8372 5.86227 12.9572C3.99542 14.0772 3.59277 15.592 4.65431 17.5018C5.71585 19.4115 5.71585 21.323 4.65431 23.2327C3.59277 25.1424 3.99725 26.6573 5.86227 27.7773C7.72912 28.8973 8.67535 30.5524 8.70463 32.7388C8.73392 34.929 9.8339 36.0379 12.0046 36.0675C14.1752 36.097 15.817 37.0509 16.9279 38.9329C18.037 40.815 19.5415 41.2191 21.4358 40.1507C23.3301 39.0824 25.2244 39.0824 27.1187 40.1507C29.013 41.2191 30.5175 40.8131 31.6266 38.9311ZM38.9073 36.6487C32.388 37.3406 33.7131 38.9662 32.2269 40.2338C30.5101 42.0789 28.3706 41.7228 28.3706 41.7228L38.4369 59.1685L40.9078 52.7105L47.9469 53.6331L38.9073 36.6487Z" fill="url(#paint0_linear_180_1170)"/>
<path d="M23.6228 30.1007V13.8507L25.0478 15.3257H19.9228V12.6007H26.8728V30.1007H23.6228Z" fill="#103959"/>
<defs>
<linearGradient id="paint0_linear_180_1170" x1="50.4972" y1="19.3828" x2="-2.18006e-07" y2="19.3828" gradientUnits="userSpaceOnUse">
<stop stop-color="#AE7A25"/>
<stop offset="0.5" stop-color="#F7E17B"/>
<stop offset="1" stop-color="#AE7A25"/>
</linearGradient>
</defs>
</svg>
