<svg width="27" height="16" viewBox="0 0 27 16" fill="none" xmlns="http://www.w3.org/2000/svg">
<path d="M13.5 10.2971C14.7919 10.2971 15.8446 9.25694 15.8446 7.98283C15.8446 6.70871 14.7908 5.70187 13.5 5.70187C12.2092 5.70187 11.1891 6.70871 11.1891 7.98283C11.1891 9.25694 12.2092 10.2971 13.5 10.2971ZM13.5 16C21.1809 16 26.7194 8.88877 26.7194 8.88877C27.0935 8.41862 27.0935 7.5803 26.7194 7.11123C26.7194 7.11123 21.1798 0 13.5 0C5.8202 0 0.28057 7.11123 0.28057 7.11123C-0.0935235 7.58138 -0.0935235 8.4197 0.28057 8.88877C0.28057 8.88877 5.8202 16 13.5 16ZM13.5 2.24661C16.695 2.24661 19.3115 4.8292 19.3115 7.98283C19.3115 11.1365 16.695 13.719 13.5 13.719C10.305 13.719 7.6885 11.1365 7.6885 7.98283C7.6885 4.8292 10.305 2.24661 13.5 2.24661Z" fill="#F5F5F5"/>
</svg>
