<svg width="356" height="173" viewBox="0 0 356 173" fill="none" xmlns="http://www.w3.org/2000/svg">
<g clip-path="url(#clip0_1174_12684)">
<path d="M146.103 132.903C165.801 126.167 179.99 107.195 179.99 84.8749C179.99 56.8759 157.688 34.1787 130.176 34.1787C124.402 34.1787 118.856 35.1808 113.701 37.0266C110.709 38.0843 107.873 39.4291 105.18 41.0221C90.3422 49.8013 80.3608 66.1561 80.3608 84.8749C80.3608 86.9519 80.4828 88.9775 80.7311 90.9817C80.7311 90.9817 80.7255 90.976 80.7143 90.9646C80.7311 91.0888 80.7479 91.1787 80.769 91.3029C81.2445 95.1186 82.1239 98.8101 83.3906 102.322C84.8003 106.694 85.8901 108.664 86.3656 112.553C86.858 116.475 86.3656 119.559 86.1005 121.028C85.6797 123.34 85.0107 125.49 84.1648 127.46C83.3569 129.447 82.368 131.259 81.3118 132.907C79.4266 135.901 77.352 138.355 75.6099 140.359C69.3441 147.613 63.6212 152.74 63.6212 152.74C60.8229 155.249 57.4943 157.99 58.0582 160.765C58.3233 162.037 59.3248 162.971 61.0669 164.581C61.2605 164.761 61.6476 165.082 62.4219 165.746C63.9705 167.052 65.6074 168.379 67.4758 169.814C68.3048 170.439 68.7087 170.765 68.9191 170.906C70.8548 172.251 71.9826 173.039 73.266 173C76.0307 172.91 77.8949 168.987 79.637 165.656C79.637 165.656 83.2264 158.812 88.739 150.928C91.9413 146.324 96.6964 139.734 104.809 136.094C106.375 135.378 109.106 134.196 112.838 133.871C113.137 133.837 113.419 133.837 113.684 133.815H113.739C115.835 133.725 117.417 134.012 119.302 134.355C122.803 135.143 126.447 135.571 130.18 135.571C135.76 135.571 141.112 134.638 146.111 132.903H146.103ZM130.171 40.2856C154.376 40.2856 173.985 60.242 173.985 84.8749C173.985 104.866 161.067 121.799 143.25 127.456C139.113 128.783 134.729 129.481 130.171 129.481C124.343 129.481 118.801 128.317 113.714 126.201C97.6769 119.61 86.3572 103.577 86.3572 84.8706C86.3572 66.1647 97.6769 50.1524 113.714 43.5402C116.424 42.4097 119.26 41.5703 122.214 41.0136C124.785 40.5297 127.44 40.2813 130.171 40.2813V40.2856Z" fill="#DCE79F"/>
<path d="M128.08 24.2518H128.172C134.691 24.1875 139.976 18.8044 139.976 12.1409C139.976 5.47731 134.627 0 128.08 0C125.374 0 122.887 0.895042 120.871 2.46672C118.006 4.71075 116.15 8.20098 116.15 12.1409C116.15 18.8387 121.503 24.2518 128.08 24.2518Z" fill="#DCE79F"/>
<path d="M0 42.6794H29.8266C48.9395 42.6794 64.3493 49.6428 64.3493 71.1152C64.3493 92.5877 48.767 101.067 30.3652 101.067H19.6263V131.053H0V42.6794ZM29.1996 85.2089C39.9974 85.2089 45.106 80.3097 45.106 71.1152C45.106 61.9207 39.2947 58.5461 28.6694 58.5461H19.6263V85.2089H29.1954H29.1996Z" fill="#7FABCC"/>
<path d="M200.34 42.6793H220.455L243.115 86.6349L251.704 106.052H252.23C251.308 96.703 249.726 84.3223 249.726 73.8987V42.675H268.431V131.049H248.316L225.656 86.9903L217.067 67.6848H216.541C217.463 77.4361 219.045 89.2686 219.045 99.6794V131.044H200.34V42.6793Z" fill="#7FABCC"/>
<path d="M284.817 87.38C284.817 58.0663 303.959 41.0605 327.137 41.0605C339.74 41.0605 348.691 46.5293 354.54 52.5248L344.188 65.338C339.879 61.3039 335.238 58.3104 327.794 58.3104C314.429 58.3104 304.931 68.991 304.931 86.7077C304.931 104.424 313.023 115.435 329.367 115.435C332.843 115.435 336.445 114.505 338.562 112.805V97.5467H324.175V81.2432H356V121.978C350.008 127.952 339.454 132.689 327.339 132.689C303.421 132.689 284.817 117.152 284.817 87.3843V87.38Z" fill="#7FABCC"/>
</g>
<defs>
<clipPath id="clip0_1174_12684">
<rect width="356" height="173" fill="white"/>
</clipPath>
</defs>
</svg>
